<svg xmlns:xlink="http://www.w3.org/1999/xlink" xmlns="http://www.w3.org/2000/svg" width="720pt" height="432pt" viewBox="0 0 720 432" version="1.1">
 <metadata>
  <rdf:RDF xmlns:dc="http://purl.org/dc/elements/1.1/" xmlns:cc="http://creativecommons.org/ns#" xmlns:rdf="http://www.w3.org/1999/02/22-rdf-syntax-ns#">
   <cc:Work>
    <dc:type rdf:resource="http://purl.org/dc/dcmitype/StillImage"/>
    <dc:date>2025-06-22T05:11:03.097975</dc:date>
    <dc:format>image/svg+xml</dc:format>
    <dc:creator>
     <cc:Agent>
      <dc:title>Matplotlib v3.10.3, https://matplotlib.org/</dc:title>
     </cc:Agent>
    </dc:creator>
   </cc:Work>
  </rdf:RDF>
 </metadata>
 <defs>
  <style type="text/css">*{stroke-linejoin: round; stroke-linecap: butt}</style>
 </defs>
 <g id="figure_1">
  <g id="patch_1">
   <path d="M 0 432  L 720 432  L 720 0  L 0 0  z " style="fill: #ffffff"/>
  </g>
  <g id="axes_1">
   <g id="patch_2">
    <path d="M 61.49 369.016  L 709.2 369.016  L 709.2 32.64  L 61.49 32.64  z " style="fill: #ffffff"/>
   </g>
   <g id="patch_3">
    <path d="M 68.534827 369.016  L 74.941285 369.016  L 74.941285 367.881989  L 68.534827 367.881989  z " clip-path="url(#p117299db2c)" style="fill: #1f77b4"/>
   </g>
   <g id="patch_4">
    <path d="M 74.941285 369.016  L 81.347744 369.016  L 81.347744 369.016  L 74.941285 369.016  z " clip-path="url(#p117299db2c)" style="fill: #1f77b4"/>
   </g>
   <g id="patch_5">
    <path d="M 81.347744 369.016  L 87.754202 369.016  L 87.754202 369.016  L 81.347744 369.016  z " clip-path="url(#p117299db2c)" style="fill: #1f77b4"/>
   </g>
   <g id="patch_6">
    <path d="M 87.754202 369.016  L 94.160661 369.016  L 94.160661 369.016  L 87.754202 369.016  z " clip-path="url(#p117299db2c)" style="fill: #1f77b4"/>
   </g>
   <g id="patch_7">
    <path d="M 94.160661 369.016  L 100.567119 369.016  L 100.567119 369.016  L 94.160661 369.016  z " clip-path="url(#p117299db2c)" style="fill: #1f77b4"/>
   </g>
   <g id="patch_8">
    <path d="M 100.567119 369.016  L 106.973577 369.016  L 106.973577 369.016  L 100.567119 369.016  z " clip-path="url(#p117299db2c)" style="fill: #1f77b4"/>
   </g>
   <g id="patch_9">
    <path d="M 106.973577 369.016  L 113.380035 369.016  L 113.380035 369.016  L 106.973577 369.016  z " clip-path="url(#p117299db2c)" style="fill: #1f77b4"/>
   </g>
   <g id="patch_10">
    <path d="M 113.380035 369.016  L 119.786494 369.016  L 119.786494 369.016  L 113.380035 369.016  z " clip-path="url(#p117299db2c)" style="fill: #1f77b4"/>
   </g>
   <g id="patch_11">
    <path d="M 119.786494 369.016  L 126.192949 369.016  L 126.192949 368.448995  L 119.786494 368.448995  z " clip-path="url(#p117299db2c)" style="fill: #1f77b4"/>
   </g>
   <g id="patch_12">
    <path d="M 126.192949 369.016  L 132.59941 369.016  L 132.59941 368.165492  L 126.192949 368.165492  z " clip-path="url(#p117299db2c)" style="fill: #1f77b4"/>
   </g>
   <g id="patch_13">
    <path d="M 132.59941 369.016  L 139.005872 369.016  L 139.005872 368.732497  L 132.59941 368.732497  z " clip-path="url(#p117299db2c)" style="fill: #1f77b4"/>
   </g>
   <g id="patch_14">
    <path d="M 139.005872 369.016  L 145.412326 369.016  L 145.412326 367.881989  L 139.005872 367.881989  z " clip-path="url(#p117299db2c)" style="fill: #1f77b4"/>
   </g>
   <g id="patch_15">
    <path d="M 145.412326 369.016  L 151.818781 369.016  L 151.818781 366.464475  L 145.412326 366.464475  z " clip-path="url(#p117299db2c)" style="fill: #1f77b4"/>
   </g>
   <g id="patch_16">
    <path d="M 151.818781 369.016  L 158.225243 369.016  L 158.225243 364.479956  L 151.818781 364.479956  z " clip-path="url(#p117299db2c)" style="fill: #1f77b4"/>
   </g>
   <g id="patch_17">
    <path d="M 158.225243 369.016  L 164.631704 369.016  L 164.631704 362.77894  L 158.225243 362.77894  z " clip-path="url(#p117299db2c)" style="fill: #1f77b4"/>
   </g>
   <g id="patch_18">
    <path d="M 164.631704 369.016  L 171.038159 369.016  L 171.038159 359.943912  L 164.631704 359.943912  z " clip-path="url(#p117299db2c)" style="fill: #1f77b4"/>
   </g>
   <g id="patch_19">
    <path d="M 171.038159 369.016  L 177.444614 369.016  L 177.444614 358.809901  L 171.038159 358.809901  z " clip-path="url(#p117299db2c)" style="fill: #1f77b4"/>
   </g>
   <g id="patch_20">
    <path d="M 177.444614 369.016  L 183.851069 369.016  L 183.851069 359.376907  L 177.444614 359.376907  z " clip-path="url(#p117299db2c)" style="fill: #1f77b4"/>
   </g>
   <g id="patch_21">
    <path d="M 183.851069 369.016  L 190.257537 369.016  L 190.257537 356.825382  L 183.851069 356.825382  z " clip-path="url(#p117299db2c)" style="fill: #1f77b4"/>
   </g>
   <g id="patch_22">
    <path d="M 190.257537 369.016  L 196.663992 369.016  L 196.663992 351.722333  L 190.257537 351.722333  z " clip-path="url(#p117299db2c)" style="fill: #1f77b4"/>
   </g>
   <g id="patch_23">
    <path d="M 196.663992 369.016  L 203.070447 369.016  L 203.070447 351.155327  L 196.663992 351.155327  z " clip-path="url(#p117299db2c)" style="fill: #1f77b4"/>
   </g>
   <g id="patch_24">
    <path d="M 203.070447 369.016  L 209.476915 369.016  L 209.476915 350.588322  L 203.070447 350.588322  z " clip-path="url(#p117299db2c)" style="fill: #1f77b4"/>
   </g>
   <g id="patch_25">
    <path d="M 209.476915 369.016  L 215.88337 369.016  L 215.88337 344.067759  L 209.476915 344.067759  z " clip-path="url(#p117299db2c)" style="fill: #1f77b4"/>
   </g>
   <g id="patch_26">
    <path d="M 215.88337 369.016  L 222.289825 369.016  L 222.289825 336.696688  L 215.88337 336.696688  z " clip-path="url(#p117299db2c)" style="fill: #1f77b4"/>
   </g>
   <g id="patch_27">
    <path d="M 222.289825 369.016  L 228.69628 369.016  L 228.69628 336.129682  L 222.289825 336.129682  z " clip-path="url(#p117299db2c)" style="fill: #1f77b4"/>
   </g>
   <g id="patch_28">
    <path d="M 228.69628 369.016  L 235.102735 369.016  L 235.102735 331.310136  L 228.69628 331.310136  z " clip-path="url(#p117299db2c)" style="fill: #1f77b4"/>
   </g>
   <g id="patch_29">
    <path d="M 235.102735 369.016  L 241.509203 369.016  L 241.509203 328.475108  L 235.102735 328.475108  z " clip-path="url(#p117299db2c)" style="fill: #1f77b4"/>
   </g>
   <g id="patch_30">
    <path d="M 241.509203 369.016  L 247.915658 369.016  L 247.915658 324.789573  L 241.509203 324.789573  z " clip-path="url(#p117299db2c)" style="fill: #1f77b4"/>
   </g>
   <g id="patch_31">
    <path d="M 247.915658 369.016  L 254.322113 369.016  L 254.322113 316.567993  L 247.915658 316.567993  z " clip-path="url(#p117299db2c)" style="fill: #1f77b4"/>
   </g>
   <g id="patch_32">
    <path d="M 254.322113 369.016  L 260.728581 369.016  L 260.728581 313.16596  L 254.322113 313.16596  z " clip-path="url(#p117299db2c)" style="fill: #1f77b4"/>
   </g>
   <g id="patch_33">
    <path d="M 260.728581 369.016  L 267.135036 369.016  L 267.135036 307.212403  L 260.728581 307.212403  z " clip-path="url(#p117299db2c)" style="fill: #1f77b4"/>
   </g>
   <g id="patch_34">
    <path d="M 267.135036 369.016  L 273.541491 369.016  L 273.541491 308.062911  L 267.135036 308.062911  z " clip-path="url(#p117299db2c)" style="fill: #1f77b4"/>
   </g>
   <g id="patch_35">
    <path d="M 273.541491 369.016  L 279.947946 369.016  L 279.947946 311.748447  L 273.541491 311.748447  z " clip-path="url(#p117299db2c)" style="fill: #1f77b4"/>
   </g>
   <g id="patch_36">
    <path d="M 279.947946 369.016  L 286.354388 369.016  L 286.354388 303.81037  L 279.947946 303.81037  z " clip-path="url(#p117299db2c)" style="fill: #1f77b4"/>
   </g>
   <g id="patch_37">
    <path d="M 286.354388 369.016  L 292.760843 369.016  L 292.760843 296.722802  L 286.354388 296.722802  z " clip-path="url(#p117299db2c)" style="fill: #1f77b4"/>
   </g>
   <g id="patch_38">
    <path d="M 292.760843 369.016  L 299.167298 369.016  L 299.167298 291.903255  L 292.760843 291.903255  z " clip-path="url(#p117299db2c)" style="fill: #1f77b4"/>
   </g>
   <g id="patch_39">
    <path d="M 299.167298 369.016  L 305.573779 369.016  L 305.573779 290.769244  L 299.167298 290.769244  z " clip-path="url(#p117299db2c)" style="fill: #1f77b4"/>
   </g>
   <g id="patch_40">
    <path d="M 305.573779 369.016  L 311.980234 369.016  L 311.980234 290.769244  L 305.573779 290.769244  z " clip-path="url(#p117299db2c)" style="fill: #1f77b4"/>
   </g>
   <g id="patch_41">
    <path d="M 311.980234 369.016  L 318.386689 369.016  L 318.386689 282.264162  L 311.980234 282.264162  z " clip-path="url(#p117299db2c)" style="fill: #1f77b4"/>
   </g>
   <g id="patch_42">
    <path d="M 318.386689 369.016  L 324.793144 369.016  L 324.793144 285.099189  L 318.386689 285.099189  z " clip-path="url(#p117299db2c)" style="fill: #1f77b4"/>
   </g>
   <g id="patch_43">
    <path d="M 324.793144 369.016  L 331.199599 369.016  L 331.199599 269.223036  L 324.793144 269.223036  z " clip-path="url(#p117299db2c)" style="fill: #1f77b4"/>
   </g>
   <g id="patch_44">
    <path d="M 331.199599 369.016  L 337.606054 369.016  L 337.606054 268.939533  L 331.199599 268.939533  z " clip-path="url(#p117299db2c)" style="fill: #1f77b4"/>
   </g>
   <g id="patch_45">
    <path d="M 337.606054 369.016  L 344.012509 369.016  L 344.012509 257.315921  L 337.606054 257.315921  z " clip-path="url(#p117299db2c)" style="fill: #1f77b4"/>
   </g>
   <g id="patch_46">
    <path d="M 344.012509 369.016  L 350.41899 369.016  L 350.41899 244.558298  L 344.012509 244.558298  z " clip-path="url(#p117299db2c)" style="fill: #1f77b4"/>
   </g>
   <g id="patch_47">
    <path d="M 350.41899 369.016  L 356.825445 369.016  L 356.825445 221.02757  L 350.41899 221.02757  z " clip-path="url(#p117299db2c)" style="fill: #1f77b4"/>
   </g>
   <g id="patch_48">
    <path d="M 356.825445 369.016  L 363.2319 369.016  L 363.2319 206.852433  L 356.825445 206.852433  z " clip-path="url(#p117299db2c)" style="fill: #1f77b4"/>
   </g>
   <g id="patch_49">
    <path d="M 363.2319 369.016  L 369.638355 369.016  L 369.638355 179.919673  L 363.2319 179.919673  z " clip-path="url(#p117299db2c)" style="fill: #1f77b4"/>
   </g>
   <g id="patch_50">
    <path d="M 369.638355 369.016  L 376.04481 369.016  L 376.04481 156.672448  L 369.638355 156.672448  z " clip-path="url(#p117299db2c)" style="fill: #1f77b4"/>
   </g>
   <g id="patch_51">
    <path d="M 376.04481 369.016  L 382.451265 369.016  L 382.451265 114.147038  L 376.04481 114.147038  z " clip-path="url(#p117299db2c)" style="fill: #1f77b4"/>
   </g>
   <g id="patch_52">
    <path d="M 382.451265 369.016  L 388.85772 369.016  L 388.85772 90.332807  L 382.451265 90.332807  z " clip-path="url(#p117299db2c)" style="fill: #1f77b4"/>
   </g>
   <g id="patch_53">
    <path d="M 388.85772 369.016  L 395.264175 369.016  L 395.264175 77.008179  L 388.85772 77.008179  z " clip-path="url(#p117299db2c)" style="fill: #1f77b4"/>
   </g>
   <g id="patch_54">
    <path d="M 395.264175 369.016  L 401.670629 369.016  L 401.670629 54.611462  L 395.264175 54.611462  z " clip-path="url(#p117299db2c)" style="fill: #1f77b4"/>
   </g>
   <g id="patch_55">
    <path d="M 401.670629 369.016  L 408.077111 369.016  L 408.077111 48.657905  L 401.670629 48.657905  z " clip-path="url(#p117299db2c)" style="fill: #1f77b4"/>
   </g>
   <g id="patch_56">
    <path d="M 408.077111 369.016  L 414.483566 369.016  L 414.483566 52.34344  L 408.077111 52.34344  z " clip-path="url(#p117299db2c)" style="fill: #1f77b4"/>
   </g>
   <g id="patch_57">
    <path d="M 414.483566 369.016  L 420.890021 369.016  L 420.890021 67.936091  L 414.483566 67.936091  z " clip-path="url(#p117299db2c)" style="fill: #1f77b4"/>
   </g>
   <g id="patch_58">
    <path d="M 420.890021 369.016  L 427.296476 369.016  L 427.296476 92.317327  L 420.890021 92.317327  z " clip-path="url(#p117299db2c)" style="fill: #1f77b4"/>
   </g>
   <g id="patch_59">
    <path d="M 427.296476 369.016  L 433.70293 369.016  L 433.70293 86.363769  L 427.296476 86.363769  z " clip-path="url(#p117299db2c)" style="fill: #1f77b4"/>
   </g>
   <g id="patch_60">
    <path d="M 433.70293 369.016  L 440.109385 369.016  L 440.109385 139.662284  L 433.70293 139.662284  z " clip-path="url(#p117299db2c)" style="fill: #1f77b4"/>
   </g>
   <g id="patch_61">
    <path d="M 440.109385 369.016  L 446.51584 369.016  L 446.51584 162.059  L 440.109385 162.059  z " clip-path="url(#p117299db2c)" style="fill: #1f77b4"/>
   </g>
   <g id="patch_62">
    <path d="M 446.51584 369.016  L 452.922322 369.016  L 452.922322 173.966115  L 446.51584 173.966115  z " clip-path="url(#p117299db2c)" style="fill: #1f77b4"/>
   </g>
   <g id="patch_63">
    <path d="M 452.922322 369.016  L 459.328777 369.016  L 459.328777 205.151417  L 452.922322 205.151417  z " clip-path="url(#p117299db2c)" style="fill: #1f77b4"/>
   </g>
   <g id="patch_64">
    <path d="M 459.328777 369.016  L 465.735231 369.016  L 465.735231 234.068696  L 459.328777 234.068696  z " clip-path="url(#p117299db2c)" style="fill: #1f77b4"/>
   </g>
   <g id="patch_65">
    <path d="M 465.735231 369.016  L 472.141686 369.016  L 472.141686 257.882926  L 465.735231 257.882926  z " clip-path="url(#p117299db2c)" style="fill: #1f77b4"/>
   </g>
   <g id="patch_66">
    <path d="M 472.141686 369.016  L 478.548141 369.016  L 478.548141 271.77456  L 472.141686 271.77456  z " clip-path="url(#p117299db2c)" style="fill: #1f77b4"/>
   </g>
   <g id="patch_67">
    <path d="M 478.548141 369.016  L 484.954596 369.016  L 484.954596 285.666195  L 478.548141 285.666195  z " clip-path="url(#p117299db2c)" style="fill: #1f77b4"/>
   </g>
   <g id="patch_68">
    <path d="M 484.954596 369.016  L 491.361051 369.016  L 491.361051 300.69184  L 484.954596 300.69184  z " clip-path="url(#p117299db2c)" style="fill: #1f77b4"/>
   </g>
   <g id="patch_69">
    <path d="M 491.361051 369.016  L 497.767506 369.016  L 497.767506 305.794889  L 491.361051 305.794889  z " clip-path="url(#p117299db2c)" style="fill: #1f77b4"/>
   </g>
   <g id="patch_70">
    <path d="M 497.767506 369.016  L 504.173987 369.016  L 504.173987 320.537032  L 497.767506 320.537032  z " clip-path="url(#p117299db2c)" style="fill: #1f77b4"/>
   </g>
   <g id="patch_71">
    <path d="M 504.173987 369.016  L 510.580469 369.016  L 510.580469 332.444147  L 504.173987 332.444147  z " clip-path="url(#p117299db2c)" style="fill: #1f77b4"/>
   </g>
   <g id="patch_72">
    <path d="M 510.580469 369.016  L 516.986897 369.016  L 516.986897 331.593638  L 510.580469 331.593638  z " clip-path="url(#p117299db2c)" style="fill: #1f77b4"/>
   </g>
   <g id="patch_73">
    <path d="M 516.986897 369.016  L 523.393379 369.016  L 523.393379 334.428666  L 516.986897 334.428666  z " clip-path="url(#p117299db2c)" style="fill: #1f77b4"/>
   </g>
   <g id="patch_74">
    <path d="M 523.393379 369.016  L 529.799807 369.016  L 529.799807 337.263693  L 523.393379 337.263693  z " clip-path="url(#p117299db2c)" style="fill: #1f77b4"/>
   </g>
   <g id="patch_75">
    <path d="M 529.799807 369.016  L 536.206288 369.016  L 536.206288 348.036797  L 529.799807 348.036797  z " clip-path="url(#p117299db2c)" style="fill: #1f77b4"/>
   </g>
   <g id="patch_76">
    <path d="M 536.206288 369.016  L 542.61277 369.016  L 542.61277 346.052278  L 536.206288 346.052278  z " clip-path="url(#p117299db2c)" style="fill: #1f77b4"/>
   </g>
   <g id="patch_77">
    <path d="M 542.61277 369.016  L 549.019198 369.016  L 549.019198 347.753295  L 542.61277 347.753295  z " clip-path="url(#p117299db2c)" style="fill: #1f77b4"/>
   </g>
   <g id="patch_78">
    <path d="M 549.019198 369.016  L 555.42568 369.016  L 555.42568 350.304819  L 549.019198 350.304819  z " clip-path="url(#p117299db2c)" style="fill: #1f77b4"/>
   </g>
   <g id="patch_79">
    <path d="M 555.42568 369.016  L 561.832108 369.016  L 561.832108 352.572841  L 555.42568 352.572841  z " clip-path="url(#p117299db2c)" style="fill: #1f77b4"/>
   </g>
   <g id="patch_80">
    <path d="M 561.832108 369.016  L 568.238589 369.016  L 568.238589 354.55736  L 561.832108 354.55736  z " clip-path="url(#p117299db2c)" style="fill: #1f77b4"/>
   </g>
   <g id="patch_81">
    <path d="M 568.238589 369.016  L 574.645018 369.016  L 574.645018 353.990355  L 568.238589 353.990355  z " clip-path="url(#p117299db2c)" style="fill: #1f77b4"/>
   </g>
   <g id="patch_82">
    <path d="M 574.645018 369.016  L 581.051499 369.016  L 581.051499 357.67589  L 574.645018 357.67589  z " clip-path="url(#p117299db2c)" style="fill: #1f77b4"/>
   </g>
   <g id="patch_83">
    <path d="M 581.051499 369.016  L 587.457981 369.016  L 587.457981 358.526399  L 581.051499 358.526399  z " clip-path="url(#p117299db2c)" style="fill: #1f77b4"/>
   </g>
   <g id="patch_84">
    <path d="M 587.457981 369.016  L 593.864409 369.016  L 593.864409 358.242896  L 587.457981 358.242896  z " clip-path="url(#p117299db2c)" style="fill: #1f77b4"/>
   </g>
   <g id="patch_85">
    <path d="M 593.864409 369.016  L 600.27089 369.016  L 600.27089 358.242896  L 593.864409 358.242896  z " clip-path="url(#p117299db2c)" style="fill: #1f77b4"/>
   </g>
   <g id="patch_86">
    <path d="M 600.27089 369.016  L 606.677319 369.016  L 606.677319 360.794421  L 600.27089 360.794421  z " clip-path="url(#p117299db2c)" style="fill: #1f77b4"/>
   </g>
   <g id="patch_87">
    <path d="M 606.677319 369.016  L 613.0838 369.016  L 613.0838 359.943912  L 606.677319 359.943912  z " clip-path="url(#p117299db2c)" style="fill: #1f77b4"/>
   </g>
   <g id="patch_88">
    <path d="M 613.0838 369.016  L 619.490229 369.016  L 619.490229 364.196453  L 613.0838 364.196453  z " clip-path="url(#p117299db2c)" style="fill: #1f77b4"/>
   </g>
   <g id="patch_89">
    <path d="M 619.490229 369.016  L 625.89671 369.016  L 625.89671 363.062442  L 619.490229 363.062442  z " clip-path="url(#p117299db2c)" style="fill: #1f77b4"/>
   </g>
   <g id="patch_90">
    <path d="M 625.89671 369.016  L 632.303191 369.016  L 632.303191 362.77894  L 625.89671 362.77894  z " clip-path="url(#p117299db2c)" style="fill: #1f77b4"/>
   </g>
   <g id="patch_91">
    <path d="M 632.303191 369.016  L 638.70962 369.016  L 638.70962 364.196453  L 632.303191 364.196453  z " clip-path="url(#p117299db2c)" style="fill: #1f77b4"/>
   </g>
   <g id="patch_92">
    <path d="M 638.70962 369.016  L 645.116101 369.016  L 645.116101 363.062442  L 638.70962 363.062442  z " clip-path="url(#p117299db2c)" style="fill: #1f77b4"/>
   </g>
   <g id="patch_93">
    <path d="M 645.116101 369.016  L 651.52253 369.016  L 651.52253 363.345945  L 645.116101 363.345945  z " clip-path="url(#p117299db2c)" style="fill: #1f77b4"/>
   </g>
   <g id="patch_94">
    <path d="M 651.52253 369.016  L 657.929011 369.016  L 657.929011 364.763459  L 651.52253 364.763459  z " clip-path="url(#p117299db2c)" style="fill: #1f77b4"/>
   </g>
   <g id="patch_95">
    <path d="M 657.929011 369.016  L 664.33544 369.016  L 664.33544 362.77894  L 657.929011 362.77894  z " clip-path="url(#p117299db2c)" style="fill: #1f77b4"/>
   </g>
   <g id="patch_96">
    <path d="M 664.33544 369.016  L 670.741921 369.016  L 670.741921 365.613967  L 664.33544 365.613967  z " clip-path="url(#p117299db2c)" style="fill: #1f77b4"/>
   </g>
   <g id="patch_97">
    <path d="M 670.741921 369.016  L 677.14835 369.016  L 677.14835 365.613967  L 670.741921 365.613967  z " clip-path="url(#p117299db2c)" style="fill: #1f77b4"/>
   </g>
   <g id="patch_98">
    <path d="M 677.14835 369.016  L 683.554831 369.016  L 683.554831 362.211934  L 677.14835 362.211934  z " clip-path="url(#p117299db2c)" style="fill: #1f77b4"/>
   </g>
   <g id="patch_99">
    <path d="M 683.554831 369.016  L 689.961312 369.016  L 689.961312 364.763459  L 683.554831 364.763459  z " clip-path="url(#p117299db2c)" style="fill: #1f77b4"/>
   </g>
   <g id="patch_100">
    <path d="M 689.961312 369.016  L 696.367741 369.016  L 696.367741 364.763459  L 689.961312 364.763459  z " clip-path="url(#p117299db2c)" style="fill: #1f77b4"/>
   </g>
   <g id="patch_101">
    <path d="M 696.367741 369.016  L 702.774222 369.016  L 702.774222 364.763459  L 696.367741 364.763459  z " clip-path="url(#p117299db2c)" style="fill: #1f77b4"/>
   </g>
   <g id="patch_102">
    <path d="M 702.774222 369.016  L 709.180651 369.016  L 709.180651 364.763459  L 702.774222 364.763459  z " clip-path="url(#p117299db2c)" style="fill: #1f77b4"/>
   </g>
   <g id="matplotlib.axis_1">
    <g id="xtick_1">
     <g id="line2d_1">
      <defs>
       <path id="m2b796df456" d="M 0 0  L 0 3.5  " style="stroke: #000000; stroke-width: 0.8"/>
      </defs>
      <g>
       <use xlink:href="#m2b796df456" x="61.49" y="369.016" style="stroke: #000000; stroke-width: 0.8"/>
      </g>
     </g>
     <g id="text_1">
      <!-- 0.00 -->
      <g transform="translate(50.357188 383.614438) scale(0.1 -0.1)">
       <defs>
        <path id="DejaVuSans-30" d="M 2034 4250  Q 1547 4250 1301 3770  Q 1056 3291 1056 2328  Q 1056 1369 1301 889  Q 1547 409 2034 409  Q 2525 409 2770 889  Q 3016 1369 3016 2328  Q 3016 3291 2770 3770  Q 2525 4250 2034 4250  z M 2034 4750  Q 2819 4750 3233 4129  Q 3647 3509 3647 2328  Q 3647 1150 3233 529  Q 2819 -91 2034 -91  Q 1250 -91 836 529  Q 422 1150 422 2328  Q 422 3509 836 4129  Q 1250 4750 2034 4750  z " transform="scale(0.015625)"/>
        <path id="DejaVuSans-2e" d="M 684 794  L 1344 794  L 1344 0  L 684 0  L 684 794  z " transform="scale(0.015625)"/>
       </defs>
       <use xlink:href="#DejaVuSans-30"/>
       <use xlink:href="#DejaVuSans-2e" transform="translate(63.623047 0)"/>
       <use xlink:href="#DejaVuSans-30" transform="translate(95.410156 0)"/>
       <use xlink:href="#DejaVuSans-30" transform="translate(159.033203 0)"/>
      </g>
     </g>
    </g>
    <g id="xtick_2">
     <g id="line2d_2">
      <g>
       <use xlink:href="#m2b796df456" x="202.386531" y="369.016" style="stroke: #000000; stroke-width: 0.8"/>
      </g>
     </g>
     <g id="text_2">
      <!-- 0.02 -->
      <g transform="translate(191.253719 383.614438) scale(0.1 -0.1)">
       <defs>
        <path id="DejaVuSans-32" d="M 1228 531  L 3431 531  L 3431 0  L 469 0  L 469 531  Q 828 903 1448 1529  Q 2069 2156 2228 2338  Q 2531 2678 2651 2914  Q 2772 3150 2772 3378  Q 2772 3750 2511 3984  Q 2250 4219 1831 4219  Q 1534 4219 1204 4116  Q 875 4013 500 3803  L 500 4441  Q 881 4594 1212 4672  Q 1544 4750 1819 4750  Q 2544 4750 2975 4387  Q 3406 4025 3406 3419  Q 3406 3131 3298 2873  Q 3191 2616 2906 2266  Q 2828 2175 2409 1742  Q 1991 1309 1228 531  z " transform="scale(0.015625)"/>
       </defs>
       <use xlink:href="#DejaVuSans-30"/>
       <use xlink:href="#DejaVuSans-2e" transform="translate(63.623047 0)"/>
       <use xlink:href="#DejaVuSans-30" transform="translate(95.410156 0)"/>
       <use xlink:href="#DejaVuSans-32" transform="translate(159.033203 0)"/>
      </g>
     </g>
    </g>
    <g id="xtick_3">
     <g id="line2d_3">
      <g>
       <use xlink:href="#m2b796df456" x="343.283062" y="369.016" style="stroke: #000000; stroke-width: 0.8"/>
      </g>
     </g>
     <g id="text_3">
      <!-- 0.04 -->
      <g transform="translate(332.15025 383.614438) scale(0.1 -0.1)">
       <defs>
        <path id="DejaVuSans-34" d="M 2419 4116  L 825 1625  L 2419 1625  L 2419 4116  z M 2253 4666  L 3047 4666  L 3047 1625  L 3713 1625  L 3713 1100  L 3047 1100  L 3047 0  L 2419 0  L 2419 1100  L 313 1100  L 313 1709  L 2253 4666  z " transform="scale(0.015625)"/>
       </defs>
       <use xlink:href="#DejaVuSans-30"/>
       <use xlink:href="#DejaVuSans-2e" transform="translate(63.623047 0)"/>
       <use xlink:href="#DejaVuSans-30" transform="translate(95.410156 0)"/>
       <use xlink:href="#DejaVuSans-34" transform="translate(159.033203 0)"/>
      </g>
     </g>
    </g>
    <g id="xtick_4">
     <g id="line2d_4">
      <g>
       <use xlink:href="#m2b796df456" x="484.179593" y="369.016" style="stroke: #000000; stroke-width: 0.8"/>
      </g>
     </g>
     <g id="text_4">
      <!-- 0.06 -->
      <g transform="translate(473.046781 383.614438) scale(0.1 -0.1)">
       <defs>
        <path id="DejaVuSans-36" d="M 2113 2584  Q 1688 2584 1439 2293  Q 1191 2003 1191 1497  Q 1191 994 1439 701  Q 1688 409 2113 409  Q 2538 409 2786 701  Q 3034 994 3034 1497  Q 3034 2003 2786 2293  Q 2538 2584 2113 2584  z M 3366 4563  L 3366 3988  Q 3128 4100 2886 4159  Q 2644 4219 2406 4219  Q 1781 4219 1451 3797  Q 1122 3375 1075 2522  Q 1259 2794 1537 2939  Q 1816 3084 2150 3084  Q 2853 3084 3261 2657  Q 3669 2231 3669 1497  Q 3669 778 3244 343  Q 2819 -91 2113 -91  Q 1303 -91 875 529  Q 447 1150 447 2328  Q 447 3434 972 4092  Q 1497 4750 2381 4750  Q 2619 4750 2861 4703  Q 3103 4656 3366 4563  z " transform="scale(0.015625)"/>
       </defs>
       <use xlink:href="#DejaVuSans-30"/>
       <use xlink:href="#DejaVuSans-2e" transform="translate(63.623047 0)"/>
       <use xlink:href="#DejaVuSans-30" transform="translate(95.410156 0)"/>
       <use xlink:href="#DejaVuSans-36" transform="translate(159.033203 0)"/>
      </g>
     </g>
    </g>
    <g id="xtick_5">
     <g id="line2d_5">
      <g>
       <use xlink:href="#m2b796df456" x="625.076125" y="369.016" style="stroke: #000000; stroke-width: 0.8"/>
      </g>
     </g>
     <g id="text_5">
      <!-- 0.08 -->
      <g transform="translate(613.943312 383.614438) scale(0.1 -0.1)">
       <defs>
        <path id="DejaVuSans-38" d="M 2034 2216  Q 1584 2216 1326 1975  Q 1069 1734 1069 1313  Q 1069 891 1326 650  Q 1584 409 2034 409  Q 2484 409 2743 651  Q 3003 894 3003 1313  Q 3003 1734 2745 1975  Q 2488 2216 2034 2216  z M 1403 2484  Q 997 2584 770 2862  Q 544 3141 544 3541  Q 544 4100 942 4425  Q 1341 4750 2034 4750  Q 2731 4750 3128 4425  Q 3525 4100 3525 3541  Q 3525 3141 3298 2862  Q 3072 2584 2669 2484  Q 3125 2378 3379 2068  Q 3634 1759 3634 1313  Q 3634 634 3220 271  Q 2806 -91 2034 -91  Q 1263 -91 848 271  Q 434 634 434 1313  Q 434 1759 690 2068  Q 947 2378 1403 2484  z M 1172 3481  Q 1172 3119 1398 2916  Q 1625 2713 2034 2713  Q 2441 2713 2670 2916  Q 2900 3119 2900 3481  Q 2900 3844 2670 4047  Q 2441 4250 2034 4250  Q 1625 4250 1398 4047  Q 1172 3844 1172 3481  z " transform="scale(0.015625)"/>
       </defs>
       <use xlink:href="#DejaVuSans-30"/>
       <use xlink:href="#DejaVuSans-2e" transform="translate(63.623047 0)"/>
       <use xlink:href="#DejaVuSans-30" transform="translate(95.410156 0)"/>
       <use xlink:href="#DejaVuSans-38" transform="translate(159.033203 0)"/>
      </g>
     </g>
    </g>
    <g id="text_6">
     <!-- Seconds -->
     <g transform="translate(351.73375 401.851625) scale(0.16 -0.16)">
      <defs>
       <path id="DejaVuSans-53" d="M 3425 4513  L 3425 3897  Q 3066 4069 2747 4153  Q 2428 4238 2131 4238  Q 1616 4238 1336 4038  Q 1056 3838 1056 3469  Q 1056 3159 1242 3001  Q 1428 2844 1947 2747  L 2328 2669  Q 3034 2534 3370 2195  Q 3706 1856 3706 1288  Q 3706 609 3251 259  Q 2797 -91 1919 -91  Q 1588 -91 1214 -16  Q 841 59 441 206  L 441 856  Q 825 641 1194 531  Q 1563 422 1919 422  Q 2459 422 2753 634  Q 3047 847 3047 1241  Q 3047 1584 2836 1778  Q 2625 1972 2144 2069  L 1759 2144  Q 1053 2284 737 2584  Q 422 2884 422 3419  Q 422 4038 858 4394  Q 1294 4750 2059 4750  Q 2388 4750 2728 4690  Q 3069 4631 3425 4513  z " transform="scale(0.015625)"/>
       <path id="DejaVuSans-65" d="M 3597 1894  L 3597 1613  L 953 1613  Q 991 1019 1311 708  Q 1631 397 2203 397  Q 2534 397 2845 478  Q 3156 559 3463 722  L 3463 178  Q 3153 47 2828 -22  Q 2503 -91 2169 -91  Q 1331 -91 842 396  Q 353 884 353 1716  Q 353 2575 817 3079  Q 1281 3584 2069 3584  Q 2775 3584 3186 3129  Q 3597 2675 3597 1894  z M 3022 2063  Q 3016 2534 2758 2815  Q 2500 3097 2075 3097  Q 1594 3097 1305 2825  Q 1016 2553 972 2059  L 3022 2063  z " transform="scale(0.015625)"/>
       <path id="DejaVuSans-63" d="M 3122 3366  L 3122 2828  Q 2878 2963 2633 3030  Q 2388 3097 2138 3097  Q 1578 3097 1268 2742  Q 959 2388 959 1747  Q 959 1106 1268 751  Q 1578 397 2138 397  Q 2388 397 2633 464  Q 2878 531 3122 666  L 3122 134  Q 2881 22 2623 -34  Q 2366 -91 2075 -91  Q 1284 -91 818 406  Q 353 903 353 1747  Q 353 2603 823 3093  Q 1294 3584 2113 3584  Q 2378 3584 2631 3529  Q 2884 3475 3122 3366  z " transform="scale(0.015625)"/>
       <path id="DejaVuSans-6f" d="M 1959 3097  Q 1497 3097 1228 2736  Q 959 2375 959 1747  Q 959 1119 1226 758  Q 1494 397 1959 397  Q 2419 397 2687 759  Q 2956 1122 2956 1747  Q 2956 2369 2687 2733  Q 2419 3097 1959 3097  z M 1959 3584  Q 2709 3584 3137 3096  Q 3566 2609 3566 1747  Q 3566 888 3137 398  Q 2709 -91 1959 -91  Q 1206 -91 779 398  Q 353 888 353 1747  Q 353 2609 779 3096  Q 1206 3584 1959 3584  z " transform="scale(0.015625)"/>
       <path id="DejaVuSans-6e" d="M 3513 2113  L 3513 0  L 2938 0  L 2938 2094  Q 2938 2591 2744 2837  Q 2550 3084 2163 3084  Q 1697 3084 1428 2787  Q 1159 2491 1159 1978  L 1159 0  L 581 0  L 581 3500  L 1159 3500  L 1159 2956  Q 1366 3272 1645 3428  Q 1925 3584 2291 3584  Q 2894 3584 3203 3211  Q 3513 2838 3513 2113  z " transform="scale(0.015625)"/>
       <path id="DejaVuSans-64" d="M 2906 2969  L 2906 4863  L 3481 4863  L 3481 0  L 2906 0  L 2906 525  Q 2725 213 2448 61  Q 2172 -91 1784 -91  Q 1150 -91 751 415  Q 353 922 353 1747  Q 353 2572 751 3078  Q 1150 3584 1784 3584  Q 2172 3584 2448 3432  Q 2725 3281 2906 2969  z M 947 1747  Q 947 1113 1208 752  Q 1469 391 1925 391  Q 2381 391 2643 752  Q 2906 1113 2906 1747  Q 2906 2381 2643 2742  Q 2381 3103 1925 3103  Q 1469 3103 1208 2742  Q 947 2381 947 1747  z " transform="scale(0.015625)"/>
       <path id="DejaVuSans-73" d="M 2834 3397  L 2834 2853  Q 2591 2978 2328 3040  Q 2066 3103 1784 3103  Q 1356 3103 1142 2972  Q 928 2841 928 2578  Q 928 2378 1081 2264  Q 1234 2150 1697 2047  L 1894 2003  Q 2506 1872 2764 1633  Q 3022 1394 3022 966  Q 3022 478 2636 193  Q 2250 -91 1575 -91  Q 1294 -91 989 -36  Q 684 19 347 128  L 347 722  Q 666 556 975 473  Q 1284 391 1588 391  Q 1994 391 2212 530  Q 2431 669 2431 922  Q 2431 1156 2273 1281  Q 2116 1406 1581 1522  L 1381 1569  Q 847 1681 609 1914  Q 372 2147 372 2553  Q 372 3047 722 3315  Q 1072 3584 1716 3584  Q 2034 3584 2315 3537  Q 2597 3491 2834 3397  z " transform="scale(0.015625)"/>
      </defs>
      <use xlink:href="#DejaVuSans-53"/>
      <use xlink:href="#DejaVuSans-65" transform="translate(63.476562 0)"/>
      <use xlink:href="#DejaVuSans-63" transform="translate(125 0)"/>
      <use xlink:href="#DejaVuSans-6f" transform="translate(179.980469 0)"/>
      <use xlink:href="#DejaVuSans-6e" transform="translate(241.162109 0)"/>
      <use xlink:href="#DejaVuSans-64" transform="translate(304.541016 0)"/>
      <use xlink:href="#DejaVuSans-73" transform="translate(368.017578 0)"/>
     </g>
     <!-- (limited to 98th percentile) -->
     <g transform="translate(277.455 419.768125) scale(0.16 -0.16)">
      <defs>
       <path id="DejaVuSans-28" d="M 1984 4856  Q 1566 4138 1362 3434  Q 1159 2731 1159 2009  Q 1159 1288 1364 580  Q 1569 -128 1984 -844  L 1484 -844  Q 1016 -109 783 600  Q 550 1309 550 2009  Q 550 2706 781 3412  Q 1013 4119 1484 4856  L 1984 4856  z " transform="scale(0.015625)"/>
       <path id="DejaVuSans-6c" d="M 603 4863  L 1178 4863  L 1178 0  L 603 0  L 603 4863  z " transform="scale(0.015625)"/>
       <path id="DejaVuSans-69" d="M 603 3500  L 1178 3500  L 1178 0  L 603 0  L 603 3500  z M 603 4863  L 1178 4863  L 1178 4134  L 603 4134  L 603 4863  z " transform="scale(0.015625)"/>
       <path id="DejaVuSans-6d" d="M 3328 2828  Q 3544 3216 3844 3400  Q 4144 3584 4550 3584  Q 5097 3584 5394 3201  Q 5691 2819 5691 2113  L 5691 0  L 5113 0  L 5113 2094  Q 5113 2597 4934 2840  Q 4756 3084 4391 3084  Q 3944 3084 3684 2787  Q 3425 2491 3425 1978  L 3425 0  L 2847 0  L 2847 2094  Q 2847 2600 2669 2842  Q 2491 3084 2119 3084  Q 1678 3084 1418 2786  Q 1159 2488 1159 1978  L 1159 0  L 581 0  L 581 3500  L 1159 3500  L 1159 2956  Q 1356 3278 1631 3431  Q 1906 3584 2284 3584  Q 2666 3584 2933 3390  Q 3200 3197 3328 2828  z " transform="scale(0.015625)"/>
       <path id="DejaVuSans-74" d="M 1172 4494  L 1172 3500  L 2356 3500  L 2356 3053  L 1172 3053  L 1172 1153  Q 1172 725 1289 603  Q 1406 481 1766 481  L 2356 481  L 2356 0  L 1766 0  Q 1100 0 847 248  Q 594 497 594 1153  L 594 3053  L 172 3053  L 172 3500  L 594 3500  L 594 4494  L 1172 4494  z " transform="scale(0.015625)"/>
       <path id="DejaVuSans-20" transform="scale(0.015625)"/>
       <path id="DejaVuSans-39" d="M 703 97  L 703 672  Q 941 559 1184 500  Q 1428 441 1663 441  Q 2288 441 2617 861  Q 2947 1281 2994 2138  Q 2813 1869 2534 1725  Q 2256 1581 1919 1581  Q 1219 1581 811 2004  Q 403 2428 403 3163  Q 403 3881 828 4315  Q 1253 4750 1959 4750  Q 2769 4750 3195 4129  Q 3622 3509 3622 2328  Q 3622 1225 3098 567  Q 2575 -91 1691 -91  Q 1453 -91 1209 -44  Q 966 3 703 97  z M 1959 2075  Q 2384 2075 2632 2365  Q 2881 2656 2881 3163  Q 2881 3666 2632 3958  Q 2384 4250 1959 4250  Q 1534 4250 1286 3958  Q 1038 3666 1038 3163  Q 1038 2656 1286 2365  Q 1534 2075 1959 2075  z " transform="scale(0.015625)"/>
       <path id="DejaVuSans-68" d="M 3513 2113  L 3513 0  L 2938 0  L 2938 2094  Q 2938 2591 2744 2837  Q 2550 3084 2163 3084  Q 1697 3084 1428 2787  Q 1159 2491 1159 1978  L 1159 0  L 581 0  L 581 4863  L 1159 4863  L 1159 2956  Q 1366 3272 1645 3428  Q 1925 3584 2291 3584  Q 2894 3584 3203 3211  Q 3513 2838 3513 2113  z " transform="scale(0.015625)"/>
       <path id="DejaVuSans-70" d="M 1159 525  L 1159 -1331  L 581 -1331  L 581 3500  L 1159 3500  L 1159 2969  Q 1341 3281 1617 3432  Q 1894 3584 2278 3584  Q 2916 3584 3314 3078  Q 3713 2572 3713 1747  Q 3713 922 3314 415  Q 2916 -91 2278 -91  Q 1894 -91 1617 61  Q 1341 213 1159 525  z M 3116 1747  Q 3116 2381 2855 2742  Q 2594 3103 2138 3103  Q 1681 3103 1420 2742  Q 1159 2381 1159 1747  Q 1159 1113 1420 752  Q 1681 391 2138 391  Q 2594 391 2855 752  Q 3116 1113 3116 1747  z " transform="scale(0.015625)"/>
       <path id="DejaVuSans-72" d="M 2631 2963  Q 2534 3019 2420 3045  Q 2306 3072 2169 3072  Q 1681 3072 1420 2755  Q 1159 2438 1159 1844  L 1159 0  L 581 0  L 581 3500  L 1159 3500  L 1159 2956  Q 1341 3275 1631 3429  Q 1922 3584 2338 3584  Q 2397 3584 2469 3576  Q 2541 3569 2628 3553  L 2631 2963  z " transform="scale(0.015625)"/>
       <path id="DejaVuSans-29" d="M 513 4856  L 1013 4856  Q 1481 4119 1714 3412  Q 1947 2706 1947 2009  Q 1947 1309 1714 600  Q 1481 -109 1013 -844  L 513 -844  Q 928 -128 1133 580  Q 1338 1288 1338 2009  Q 1338 2731 1133 3434  Q 928 4138 513 4856  z " transform="scale(0.015625)"/>
      </defs>
      <use xlink:href="#DejaVuSans-28"/>
      <use xlink:href="#DejaVuSans-6c" transform="translate(39.013672 0)"/>
      <use xlink:href="#DejaVuSans-69" transform="translate(66.796875 0)"/>
      <use xlink:href="#DejaVuSans-6d" transform="translate(94.580078 0)"/>
      <use xlink:href="#DejaVuSans-69" transform="translate(191.992188 0)"/>
      <use xlink:href="#DejaVuSans-74" transform="translate(219.775391 0)"/>
      <use xlink:href="#DejaVuSans-65" transform="translate(258.984375 0)"/>
      <use xlink:href="#DejaVuSans-64" transform="translate(320.507812 0)"/>
      <use xlink:href="#DejaVuSans-20" transform="translate(383.984375 0)"/>
      <use xlink:href="#DejaVuSans-74" transform="translate(415.771484 0)"/>
      <use xlink:href="#DejaVuSans-6f" transform="translate(454.980469 0)"/>
      <use xlink:href="#DejaVuSans-20" transform="translate(516.162109 0)"/>
      <use xlink:href="#DejaVuSans-39" transform="translate(547.949219 0)"/>
      <use xlink:href="#DejaVuSans-38" transform="translate(611.572266 0)"/>
      <use xlink:href="#DejaVuSans-74" transform="translate(675.195312 0)"/>
      <use xlink:href="#DejaVuSans-68" transform="translate(714.404297 0)"/>
      <use xlink:href="#DejaVuSans-20" transform="translate(777.783203 0)"/>
      <use xlink:href="#DejaVuSans-70" transform="translate(809.570312 0)"/>
      <use xlink:href="#DejaVuSans-65" transform="translate(873.046875 0)"/>
      <use xlink:href="#DejaVuSans-72" transform="translate(934.570312 0)"/>
      <use xlink:href="#DejaVuSans-63" transform="translate(973.433594 0)"/>
      <use xlink:href="#DejaVuSans-65" transform="translate(1028.414062 0)"/>
      <use xlink:href="#DejaVuSans-6e" transform="translate(1089.9375 0)"/>
      <use xlink:href="#DejaVuSans-74" transform="translate(1153.316406 0)"/>
      <use xlink:href="#DejaVuSans-69" transform="translate(1192.525391 0)"/>
      <use xlink:href="#DejaVuSans-6c" transform="translate(1220.308594 0)"/>
      <use xlink:href="#DejaVuSans-65" transform="translate(1248.091797 0)"/>
      <use xlink:href="#DejaVuSans-29" transform="translate(1309.615234 0)"/>
     </g>
    </g>
   </g>
   <g id="matplotlib.axis_2">
    <g id="ytick_1">
     <g id="line2d_6">
      <defs>
       <path id="mfa7f7725e2" d="M 0 0  L -3.5 0  " style="stroke: #000000; stroke-width: 0.8"/>
      </defs>
      <g>
       <use xlink:href="#mfa7f7725e2" x="61.49" y="369.016" style="stroke: #000000; stroke-width: 0.8"/>
      </g>
     </g>
     <g id="text_7">
      <!-- 0 -->
      <g transform="translate(48.1275 372.815219) scale(0.1 -0.1)">
       <use xlink:href="#DejaVuSans-30"/>
      </g>
     </g>
    </g>
    <g id="ytick_2">
     <g id="line2d_7">
      <g>
       <use xlink:href="#mfa7f7725e2" x="61.49" y="312.315452" style="stroke: #000000; stroke-width: 0.8"/>
      </g>
     </g>
     <g id="text_8">
      <!-- 200 -->
      <g transform="translate(35.4025 316.114671) scale(0.1 -0.1)">
       <use xlink:href="#DejaVuSans-32"/>
       <use xlink:href="#DejaVuSans-30" transform="translate(63.623047 0)"/>
       <use xlink:href="#DejaVuSans-30" transform="translate(127.246094 0)"/>
      </g>
     </g>
    </g>
    <g id="ytick_3">
     <g id="line2d_8">
      <g>
       <use xlink:href="#mfa7f7725e2" x="61.49" y="255.614904" style="stroke: #000000; stroke-width: 0.8"/>
      </g>
     </g>
     <g id="text_9">
      <!-- 400 -->
      <g transform="translate(35.4025 259.414123) scale(0.1 -0.1)">
       <use xlink:href="#DejaVuSans-34"/>
       <use xlink:href="#DejaVuSans-30" transform="translate(63.623047 0)"/>
       <use xlink:href="#DejaVuSans-30" transform="translate(127.246094 0)"/>
      </g>
     </g>
    </g>
    <g id="ytick_4">
     <g id="line2d_9">
      <g>
       <use xlink:href="#mfa7f7725e2" x="61.49" y="198.914357" style="stroke: #000000; stroke-width: 0.8"/>
      </g>
     </g>
     <g id="text_10">
      <!-- 600 -->
      <g transform="translate(35.4025 202.713575) scale(0.1 -0.1)">
       <use xlink:href="#DejaVuSans-36"/>
       <use xlink:href="#DejaVuSans-30" transform="translate(63.623047 0)"/>
       <use xlink:href="#DejaVuSans-30" transform="translate(127.246094 0)"/>
      </g>
     </g>
    </g>
    <g id="ytick_5">
     <g id="line2d_10">
      <g>
       <use xlink:href="#mfa7f7725e2" x="61.49" y="142.213809" style="stroke: #000000; stroke-width: 0.8"/>
      </g>
     </g>
     <g id="text_11">
      <!-- 800 -->
      <g transform="translate(35.4025 146.013027) scale(0.1 -0.1)">
       <use xlink:href="#DejaVuSans-38"/>
       <use xlink:href="#DejaVuSans-30" transform="translate(63.623047 0)"/>
       <use xlink:href="#DejaVuSans-30" transform="translate(127.246094 0)"/>
      </g>
     </g>
    </g>
    <g id="ytick_6">
     <g id="line2d_11">
      <g>
       <use xlink:href="#mfa7f7725e2" x="61.49" y="85.513261" style="stroke: #000000; stroke-width: 0.8"/>
      </g>
     </g>
     <g id="text_12">
      <!-- 1000 -->
      <g transform="translate(29.04 89.31248) scale(0.1 -0.1)">
       <defs>
        <path id="DejaVuSans-31" d="M 794 531  L 1825 531  L 1825 4091  L 703 3866  L 703 4441  L 1819 4666  L 2450 4666  L 2450 531  L 3481 531  L 3481 0  L 794 0  L 794 531  z " transform="scale(0.015625)"/>
       </defs>
       <use xlink:href="#DejaVuSans-31"/>
       <use xlink:href="#DejaVuSans-30" transform="translate(63.623047 0)"/>
       <use xlink:href="#DejaVuSans-30" transform="translate(127.246094 0)"/>
       <use xlink:href="#DejaVuSans-30" transform="translate(190.869141 0)"/>
      </g>
     </g>
    </g>
    <g id="text_13">
     <!-- Count -->
     <g transform="translate(21.7125 224.5855) rotate(-90) scale(0.16 -0.16)">
      <defs>
       <path id="DejaVuSans-43" d="M 4122 4306  L 4122 3641  Q 3803 3938 3442 4084  Q 3081 4231 2675 4231  Q 1875 4231 1450 3742  Q 1025 3253 1025 2328  Q 1025 1406 1450 917  Q 1875 428 2675 428  Q 3081 428 3442 575  Q 3803 722 4122 1019  L 4122 359  Q 3791 134 3420 21  Q 3050 -91 2638 -91  Q 1578 -91 968 557  Q 359 1206 359 2328  Q 359 3453 968 4101  Q 1578 4750 2638 4750  Q 3056 4750 3426 4639  Q 3797 4528 4122 4306  z " transform="scale(0.015625)"/>
       <path id="DejaVuSans-75" d="M 544 1381  L 544 3500  L 1119 3500  L 1119 1403  Q 1119 906 1312 657  Q 1506 409 1894 409  Q 2359 409 2629 706  Q 2900 1003 2900 1516  L 2900 3500  L 3475 3500  L 3475 0  L 2900 0  L 2900 538  Q 2691 219 2414 64  Q 2138 -91 1772 -91  Q 1169 -91 856 284  Q 544 659 544 1381  z M 1991 3584  L 1991 3584  z " transform="scale(0.015625)"/>
      </defs>
      <use xlink:href="#DejaVuSans-43"/>
      <use xlink:href="#DejaVuSans-6f" transform="translate(69.824219 0)"/>
      <use xlink:href="#DejaVuSans-75" transform="translate(131.005859 0)"/>
      <use xlink:href="#DejaVuSans-6e" transform="translate(194.384766 0)"/>
      <use xlink:href="#DejaVuSans-74" transform="translate(257.763672 0)"/>
     </g>
    </g>
   </g>
   <g id="patch_103">
    <path d="M 61.49 369.016  L 61.49 32.64  " style="fill: none; stroke: #000000; stroke-width: 0.8; stroke-linejoin: miter; stroke-linecap: square"/>
   </g>
   <g id="patch_104">
    <path d="M 709.2 369.016  L 709.2 32.64  " style="fill: none; stroke: #000000; stroke-width: 0.8; stroke-linejoin: miter; stroke-linecap: square"/>
   </g>
   <g id="patch_105">
    <path d="M 61.49 369.016  L 709.2 369.016  " style="fill: none; stroke: #000000; stroke-width: 0.8; stroke-linejoin: miter; stroke-linecap: square"/>
   </g>
   <g id="patch_106">
    <path d="M 61.49 32.64  L 709.2 32.64  " style="fill: none; stroke: #000000; stroke-width: 0.8; stroke-linejoin: miter; stroke-linecap: square"/>
   </g>
   <g id="text_14">
    <!-- T2* -->
    <g transform="translate(367.874688 26.64) scale(0.2 -0.2)">
     <defs>
      <path id="DejaVuSans-54" d="M -19 4666  L 3928 4666  L 3928 4134  L 2272 4134  L 2272 0  L 1638 0  L 1638 4134  L -19 4134  L -19 4666  z " transform="scale(0.015625)"/>
      <path id="DejaVuSans-2a" d="M 3009 3897  L 1888 3291  L 3009 2681  L 2828 2375  L 1778 3009  L 1778 1831  L 1422 1831  L 1422 3009  L 372 2375  L 191 2681  L 1313 3291  L 191 3897  L 372 4206  L 1422 3572  L 1422 4750  L 1778 4750  L 1778 3572  L 2828 4206  L 3009 3897  z " transform="scale(0.015625)"/>
     </defs>
     <use xlink:href="#DejaVuSans-54"/>
     <use xlink:href="#DejaVuSans-32" transform="translate(61.083984 0)"/>
     <use xlink:href="#DejaVuSans-2a" transform="translate(124.707031 0)"/>
    </g>
   </g>
  </g>
 </g>
 <defs>
  <clipPath id="p117299db2c">
   <rect x="61.49" y="32.64" width="647.71" height="336.376"/>
  </clipPath>
 </defs>
</svg>