<svg xmlns:xlink="http://www.w3.org/1999/xlink" xmlns="http://www.w3.org/2000/svg" width="720pt" height="432pt" viewBox="0 0 720 432" version="1.1">
 <metadata>
  <rdf:RDF xmlns:dc="http://purl.org/dc/elements/1.1/" xmlns:cc="http://creativecommons.org/ns#" xmlns:rdf="http://www.w3.org/1999/02/22-rdf-syntax-ns#">
   <cc:Work>
    <dc:type rdf:resource="http://purl.org/dc/dcmitype/StillImage"/>
    <dc:date>2025-06-22T05:11:17.736949</dc:date>
    <dc:format>image/svg+xml</dc:format>
    <dc:creator>
     <cc:Agent>
      <dc:title>Matplotlib v3.10.3, https://matplotlib.org/</dc:title>
     </cc:Agent>
    </dc:creator>
   </cc:Work>
  </rdf:RDF>
 </metadata>
 <defs>
  <style type="text/css">*{stroke-linejoin: round; stroke-linecap: butt}</style>
 </defs>
 <g id="figure_1">
  <g id="patch_1">
   <path d="M 0 432  L 720 432  L 720 0  L 0 0  z " style="fill: #ffffff"/>
  </g>
  <g id="axes_1">
   <g id="patch_2">
    <path d="M 90 384.48  L 648 384.48  L 648 51.84  L 90 51.84  z " style="fill: #ffffff"/>
   </g>
   <g id="FillBetweenPolyCollection_1">
    <defs>
     <path id="m64c4be07d4" d="M 90 -128.542436  L 90 -81.869358  L 93.531646 -82.121264  L 97.063291 -82.004822  L 100.594937 -82.034539  L 104.126582 -82.012087  L 107.658228 -81.900192  L 111.189873 -81.669735  L 114.721519 -81.810339  L 118.253165 -81.945388  L 121.78481 -81.981357  L 125.316456 -81.95463  L 128.848101 -81.367827  L 132.379747 -81.375052  L 135.911392 -81.330934  L 139.443038 -81.171794  L 142.974684 -81.129851  L 146.506329 -80.946113  L 150.037975 -80.955112  L 153.56962 -81.080186  L 157.101266 -80.987837  L 160.632911 -80.987732  L 164.164557 -80.990581  L 167.696203 -80.946289  L 171.227848 -81.005864  L 174.759494 -81.067629  L 178.291139 -80.964393  L 181.822785 -80.878045  L 185.35443 -81.05759  L 188.886076 -80.892121  L 192.417722 -81.109346  L 195.949367 -81.146359  L 199.481013 -80.869382  L 203.012658 -80.840332  L 206.544304 -80.897242  L 210.075949 -80.751659  L 213.607595 -80.590841  L 217.139241 -80.475509  L 220.670886 -80.66005  L 224.202532 -80.650044  L 227.734177 -80.4851  L 231.265823 -80.466807  L 234.797468 -80.754759  L 238.329114 -80.794812  L 241.860759 -80.627603  L 245.392405 -80.610577  L 248.924051 -80.69956  L 252.455696 -80.636683  L 255.987342 -80.529524  L 259.518987 -80.467273  L 263.050633 -80.306371  L 266.582278 -80.326939  L 270.113924 -80.363743  L 273.64557 -80.279604  L 277.177215 -80.292152  L 280.708861 -80.214013  L 284.240506 -80.288857  L 287.772152 -80.40729  L 291.303797 -80.269397  L 294.835443 -80.616155  L 298.367089 -80.623566  L 301.898734 -80.558748  L 305.43038 -80.56386  L 308.962025 -80.400306  L 312.493671 -80.451946  L 316.025316 -80.296592  L 319.556962 -80.121159  L 323.088608 -80.154834  L 326.620253 -80.215307  L 330.151899 -80.274148  L 333.683544 -80.312636  L 337.21519 -80.356733  L 340.746835 -80.325432  L 344.278481 -80.422941  L 347.810127 -80.248519  L 351.341772 -80.234675  L 354.873418 -80.401876  L 358.405063 -80.383608  L 361.936709 -80.293559  L 365.468354 -80.437313  L 369 -80.446263  L 372.531646 -80.483836  L 376.063291 -80.24338  L 379.594937 -79.906176  L 383.126582 -80.037759  L 386.658228 -80.229816  L 390.189873 -80.010896  L 393.721519 -80.108199  L 397.253165 -80.188897  L 400.78481 -79.997075  L 404.316456 -80.071641  L 407.848101 -79.979936  L 411.379747 -80.073676  L 414.911392 -80.018312  L 418.443038 -80.083611  L 421.974684 -79.911056  L 425.506329 -80.0635  L 429.037975 -80.115036  L 432.56962 -80.11974  L 436.101266 -80.181112  L 439.632911 -80.366719  L 443.164557 -80.459395  L 446.696203 -80.23679  L 450.227848 -80.355793  L 453.759494 -80.424295  L 457.291139 -80.179328  L 460.822785 -80.331215  L 464.35443 -80.339629  L 467.886076 -80.17192  L 471.417722 -80.192473  L 474.949367 -80.195163  L 478.481013 -80.105845  L 482.012658 -80.300082  L 485.544304 -80.801838  L 489.075949 -80.919884  L 492.607595 -80.820283  L 496.139241 -80.916023  L 499.670886 -80.73739  L 503.202532 -80.871127  L 506.734177 -80.806917  L 510.265823 -80.84471  L 513.797468 -81.033385  L 517.329114 -81.163439  L 520.860759 -81.17122  L 524.392405 -81.149694  L 527.924051 -81.396539  L 531.455696 -81.389929  L 534.987342 -81.467521  L 538.518987 -81.621039  L 542.050633 -81.586005  L 545.582278 -81.64547  L 549.113924 -81.678385  L 552.64557 -81.738518  L 556.177215 -81.728801  L 559.708861 -82.026204  L 563.240506 -81.783713  L 566.772152 -81.859211  L 570.303797 -81.947367  L 573.835443 -81.978591  L 577.367089 -81.742946  L 580.898734 -81.949747  L 584.43038 -81.881304  L 587.962025 -81.77302  L 591.493671 -81.640936  L 595.025316 -81.840484  L 598.556962 -81.976439  L 602.088608 -82.043716  L 605.620253 -82.022545  L 609.151899 -81.897039  L 612.683544 -81.977058  L 616.21519 -81.742243  L 619.746835 -81.906887  L 623.278481 -81.917005  L 626.810127 -81.954462  L 630.341772 -81.706086  L 633.873418 -81.711397  L 637.405063 -81.983046  L 640.936709 -82.07043  L 644.468354 -82.193903  L 648 -82.248712  L 651.531646 -82.308346  L 651.531646 -128.304616  L 651.531646 -128.304616  L 648 -128.312459  L 644.468354 -127.705729  L 640.936709 -127.638262  L 637.405063 -127.583643  L 633.873418 -127.406419  L 630.341772 -127.402159  L 626.810127 -127.711262  L 623.278481 -127.748615  L 619.746835 -127.890362  L 616.21519 -127.651675  L 612.683544 -127.130636  L 609.151899 -127.607282  L 605.620253 -127.634938  L 602.088608 -127.755095  L 598.556962 -127.731587  L 595.025316 -127.766195  L 591.493671 -127.182752  L 587.962025 -127.599586  L 584.43038 -127.387533  L 580.898734 -127.424661  L 577.367089 -127.187913  L 573.835443 -127.48532  L 570.303797 -127.594876  L 566.772152 -127.42336  L 563.240506 -127.623064  L 559.708861 -127.47699  L 556.177215 -127.187037  L 552.64557 -127.411546  L 549.113924 -127.285005  L 545.582278 -127.251915  L 542.050633 -127.634892  L 538.518987 -127.318159  L 534.987342 -127.225247  L 531.455696 -127.317948  L 527.924051 -127.152864  L 524.392405 -127.063934  L 520.860759 -127.112023  L 517.329114 -126.996843  L 513.797468 -126.551707  L 510.265823 -126.625602  L 506.734177 -126.575325  L 503.202532 -126.433022  L 499.670886 -126.394232  L 496.139241 -126.578339  L 492.607595 -126.577851  L 489.075949 -126.793826  L 485.544304 -126.439246  L 482.012658 -125.927504  L 478.481013 -126.04398  L 474.949367 -125.951676  L 471.417722 -125.921065  L 467.886076 -126.096523  L 464.35443 -126.120439  L 460.822785 -126.231689  L 457.291139 -125.952231  L 453.759494 -126.195823  L 450.227848 -126.136547  L 446.696203 -126.378525  L 443.164557 -126.243803  L 439.632911 -126.207536  L 436.101266 -125.829917  L 432.56962 -125.964552  L 429.037975 -126.00493  L 425.506329 -125.938311  L 421.974684 -125.836301  L 418.443038 -125.954655  L 414.911392 -125.8561  L 411.379747 -125.662819  L 407.848101 -125.922756  L 404.316456 -125.840564  L 400.78481 -125.907655  L 397.253165 -125.958697  L 393.721519 -125.937545  L 390.189873 -125.979864  L 386.658228 -126.07949  L 383.126582 -126.069917  L 379.594937 -125.972303  L 376.063291 -126.204003  L 372.531646 -126.24766  L 369 -126.266238  L 365.468354 -126.242466  L 361.936709 -125.9465  L 358.405063 -125.929032  L 354.873418 -126.25809  L 351.341772 -126.306729  L 347.810127 -126.225326  L 344.278481 -126.376924  L 340.746835 -126.254463  L 337.21519 -126.04654  L 333.683544 -126.402435  L 330.151899 -126.234889  L 326.620253 -125.99764  L 323.088608 -126.061989  L 319.556962 -126.083124  L 316.025316 -125.982066  L 312.493671 -126.263674  L 308.962025 -126.152034  L 305.43038 -126.493791  L 301.898734 -126.403563  L 298.367089 -126.497363  L 294.835443 -126.311991  L 291.303797 -126.189689  L 287.772152 -126.538762  L 284.240506 -126.372405  L 280.708861 -126.181472  L 277.177215 -126.179761  L 273.64557 -126.353209  L 270.113924 -126.454583  L 266.582278 -126.189375  L 263.050633 -126.427817  L 259.518987 -126.266972  L 255.987342 -126.231625  L 252.455696 -126.796556  L 248.924051 -127.239348  L 245.392405 -126.902177  L 241.860759 -126.481938  L 238.329114 -126.731236  L 234.797468 -126.815426  L 231.265823 -126.379087  L 227.734177 -126.025144  L 224.202532 -126.448926  L 220.670886 -126.206173  L 217.139241 -126.544361  L 213.607595 -126.682462  L 210.075949 -126.740728  L 206.544304 -126.971566  L 203.012658 -126.73692  L 199.481013 -126.842901  L 195.949367 -127.263676  L 192.417722 -126.940123  L 188.886076 -126.656561  L 185.35443 -126.821111  L 181.822785 -126.92824  L 178.291139 -126.73244  L 174.759494 -126.758587  L 171.227848 -126.737253  L 167.696203 -126.837944  L 164.164557 -127.04227  L 160.632911 -126.823281  L 157.101266 -126.703046  L 153.56962 -126.965611  L 150.037975 -126.745259  L 146.506329 -126.601924  L 142.974684 -126.884275  L 139.443038 -127.237286  L 135.911392 -127.284773  L 132.379747 -127.106772  L 128.848101 -126.852295  L 125.316456 -128.146315  L 121.78481 -128.154304  L 118.253165 -127.848028  L 114.721519 -128.158275  L 111.189873 -127.975665  L 107.658228 -127.967611  L 104.126582 -128.077842  L 100.594937 -128.504322  L 97.063291 -128.629797  L 93.531646 -128.434063  L 90 -128.542436  z " style="stroke: #0000ff; stroke-opacity: 0.2"/>
    </defs>
    <g clip-path="url(#p94c9d3f793)">
     <use xlink:href="#m64c4be07d4" x="0" y="432" style="fill: #0000ff; fill-opacity: 0.2; stroke: #0000ff; stroke-opacity: 0.2"/>
    </g>
   </g>
   <g id="matplotlib.axis_1">
    <g id="xtick_1">
     <g id="line2d_1">
      <defs>
       <path id="m0aa744c4ef" d="M 0 0  L 0 3.5  " style="stroke: #000000; stroke-width: 0.8"/>
      </defs>
      <g>
       <use xlink:href="#m0aa744c4ef" x="90" y="384.48" style="stroke: #000000; stroke-width: 0.8"/>
      </g>
     </g>
     <g id="text_1">
      <!-- 0 -->
      <g transform="translate(86.81875 399.078438) scale(0.1 -0.1)">
       <defs>
        <path id="DejaVuSans-30" d="M 2034 4250  Q 1547 4250 1301 3770  Q 1056 3291 1056 2328  Q 1056 1369 1301 889  Q 1547 409 2034 409  Q 2525 409 2770 889  Q 3016 1369 3016 2328  Q 3016 3291 2770 3770  Q 2525 4250 2034 4250  z M 2034 4750  Q 2819 4750 3233 4129  Q 3647 3509 3647 2328  Q 3647 1150 3233 529  Q 2819 -91 2034 -91  Q 1250 -91 836 529  Q 422 1150 422 2328  Q 422 3509 836 4129  Q 1250 4750 2034 4750  z " transform="scale(0.015625)"/>
       </defs>
       <use xlink:href="#DejaVuSans-30"/>
      </g>
     </g>
    </g>
    <g id="xtick_2">
     <g id="line2d_2">
      <g>
       <use xlink:href="#m0aa744c4ef" x="178.291139" y="384.48" style="stroke: #000000; stroke-width: 0.8"/>
      </g>
     </g>
     <g id="text_2">
      <!-- 50 -->
      <g transform="translate(171.928639 399.078438) scale(0.1 -0.1)">
       <defs>
        <path id="DejaVuSans-35" d="M 691 4666  L 3169 4666  L 3169 4134  L 1269 4134  L 1269 2991  Q 1406 3038 1543 3061  Q 1681 3084 1819 3084  Q 2600 3084 3056 2656  Q 3513 2228 3513 1497  Q 3513 744 3044 326  Q 2575 -91 1722 -91  Q 1428 -91 1123 -41  Q 819 9 494 109  L 494 744  Q 775 591 1075 516  Q 1375 441 1709 441  Q 2250 441 2565 725  Q 2881 1009 2881 1497  Q 2881 1984 2565 2268  Q 2250 2553 1709 2553  Q 1456 2553 1204 2497  Q 953 2441 691 2322  L 691 4666  z " transform="scale(0.015625)"/>
       </defs>
       <use xlink:href="#DejaVuSans-35"/>
       <use xlink:href="#DejaVuSans-30" transform="translate(63.623047 0)"/>
      </g>
     </g>
    </g>
    <g id="xtick_3">
     <g id="line2d_3">
      <g>
       <use xlink:href="#m0aa744c4ef" x="266.582278" y="384.48" style="stroke: #000000; stroke-width: 0.8"/>
      </g>
     </g>
     <g id="text_3">
      <!-- 100 -->
      <g transform="translate(257.038528 399.078438) scale(0.1 -0.1)">
       <defs>
        <path id="DejaVuSans-31" d="M 794 531  L 1825 531  L 1825 4091  L 703 3866  L 703 4441  L 1819 4666  L 2450 4666  L 2450 531  L 3481 531  L 3481 0  L 794 0  L 794 531  z " transform="scale(0.015625)"/>
       </defs>
       <use xlink:href="#DejaVuSans-31"/>
       <use xlink:href="#DejaVuSans-30" transform="translate(63.623047 0)"/>
       <use xlink:href="#DejaVuSans-30" transform="translate(127.246094 0)"/>
      </g>
     </g>
    </g>
    <g id="xtick_4">
     <g id="line2d_4">
      <g>
       <use xlink:href="#m0aa744c4ef" x="354.873418" y="384.48" style="stroke: #000000; stroke-width: 0.8"/>
      </g>
     </g>
     <g id="text_4">
      <!-- 150 -->
      <g transform="translate(345.329668 399.078438) scale(0.1 -0.1)">
       <use xlink:href="#DejaVuSans-31"/>
       <use xlink:href="#DejaVuSans-35" transform="translate(63.623047 0)"/>
       <use xlink:href="#DejaVuSans-30" transform="translate(127.246094 0)"/>
      </g>
     </g>
    </g>
    <g id="xtick_5">
     <g id="line2d_5">
      <g>
       <use xlink:href="#m0aa744c4ef" x="443.164557" y="384.48" style="stroke: #000000; stroke-width: 0.8"/>
      </g>
     </g>
     <g id="text_5">
      <!-- 200 -->
      <g transform="translate(433.620807 399.078438) scale(0.1 -0.1)">
       <defs>
        <path id="DejaVuSans-32" d="M 1228 531  L 3431 531  L 3431 0  L 469 0  L 469 531  Q 828 903 1448 1529  Q 2069 2156 2228 2338  Q 2531 2678 2651 2914  Q 2772 3150 2772 3378  Q 2772 3750 2511 3984  Q 2250 4219 1831 4219  Q 1534 4219 1204 4116  Q 875 4013 500 3803  L 500 4441  Q 881 4594 1212 4672  Q 1544 4750 1819 4750  Q 2544 4750 2975 4387  Q 3406 4025 3406 3419  Q 3406 3131 3298 2873  Q 3191 2616 2906 2266  Q 2828 2175 2409 1742  Q 1991 1309 1228 531  z " transform="scale(0.015625)"/>
       </defs>
       <use xlink:href="#DejaVuSans-32"/>
       <use xlink:href="#DejaVuSans-30" transform="translate(63.623047 0)"/>
       <use xlink:href="#DejaVuSans-30" transform="translate(127.246094 0)"/>
      </g>
     </g>
    </g>
    <g id="xtick_6">
     <g id="line2d_6">
      <g>
       <use xlink:href="#m0aa744c4ef" x="531.455696" y="384.48" style="stroke: #000000; stroke-width: 0.8"/>
      </g>
     </g>
     <g id="text_6">
      <!-- 250 -->
      <g transform="translate(521.911946 399.078438) scale(0.1 -0.1)">
       <use xlink:href="#DejaVuSans-32"/>
       <use xlink:href="#DejaVuSans-35" transform="translate(63.623047 0)"/>
       <use xlink:href="#DejaVuSans-30" transform="translate(127.246094 0)"/>
      </g>
     </g>
    </g>
    <g id="xtick_7">
     <g id="line2d_7">
      <g>
       <use xlink:href="#m0aa744c4ef" x="619.746835" y="384.48" style="stroke: #000000; stroke-width: 0.8"/>
      </g>
     </g>
     <g id="text_7">
      <!-- 300 -->
      <g transform="translate(610.203085 399.078438) scale(0.1 -0.1)">
       <defs>
        <path id="DejaVuSans-33" d="M 2597 2516  Q 3050 2419 3304 2112  Q 3559 1806 3559 1356  Q 3559 666 3084 287  Q 2609 -91 1734 -91  Q 1441 -91 1130 -33  Q 819 25 488 141  L 488 750  Q 750 597 1062 519  Q 1375 441 1716 441  Q 2309 441 2620 675  Q 2931 909 2931 1356  Q 2931 1769 2642 2001  Q 2353 2234 1838 2234  L 1294 2234  L 1294 2753  L 1863 2753  Q 2328 2753 2575 2939  Q 2822 3125 2822 3475  Q 2822 3834 2567 4026  Q 2313 4219 1838 4219  Q 1578 4219 1281 4162  Q 984 4106 628 3988  L 628 4550  Q 988 4650 1302 4700  Q 1616 4750 1894 4750  Q 2613 4750 3031 4423  Q 3450 4097 3450 3541  Q 3450 3153 3228 2886  Q 3006 2619 2597 2516  z " transform="scale(0.015625)"/>
       </defs>
       <use xlink:href="#DejaVuSans-33"/>
       <use xlink:href="#DejaVuSans-30" transform="translate(63.623047 0)"/>
       <use xlink:href="#DejaVuSans-30" transform="translate(127.246094 0)"/>
      </g>
     </g>
    </g>
    <g id="text_8">
     <!-- Time (s) -->
     <g transform="translate(336.47375 417.315625) scale(0.16 -0.16)">
      <defs>
       <path id="DejaVuSans-54" d="M -19 4666  L 3928 4666  L 3928 4134  L 2272 4134  L 2272 0  L 1638 0  L 1638 4134  L -19 4134  L -19 4666  z " transform="scale(0.015625)"/>
       <path id="DejaVuSans-69" d="M 603 3500  L 1178 3500  L 1178 0  L 603 0  L 603 3500  z M 603 4863  L 1178 4863  L 1178 4134  L 603 4134  L 603 4863  z " transform="scale(0.015625)"/>
       <path id="DejaVuSans-6d" d="M 3328 2828  Q 3544 3216 3844 3400  Q 4144 3584 4550 3584  Q 5097 3584 5394 3201  Q 5691 2819 5691 2113  L 5691 0  L 5113 0  L 5113 2094  Q 5113 2597 4934 2840  Q 4756 3084 4391 3084  Q 3944 3084 3684 2787  Q 3425 2491 3425 1978  L 3425 0  L 2847 0  L 2847 2094  Q 2847 2600 2669 2842  Q 2491 3084 2119 3084  Q 1678 3084 1418 2786  Q 1159 2488 1159 1978  L 1159 0  L 581 0  L 581 3500  L 1159 3500  L 1159 2956  Q 1356 3278 1631 3431  Q 1906 3584 2284 3584  Q 2666 3584 2933 3390  Q 3200 3197 3328 2828  z " transform="scale(0.015625)"/>
       <path id="DejaVuSans-65" d="M 3597 1894  L 3597 1613  L 953 1613  Q 991 1019 1311 708  Q 1631 397 2203 397  Q 2534 397 2845 478  Q 3156 559 3463 722  L 3463 178  Q 3153 47 2828 -22  Q 2503 -91 2169 -91  Q 1331 -91 842 396  Q 353 884 353 1716  Q 353 2575 817 3079  Q 1281 3584 2069 3584  Q 2775 3584 3186 3129  Q 3597 2675 3597 1894  z M 3022 2063  Q 3016 2534 2758 2815  Q 2500 3097 2075 3097  Q 1594 3097 1305 2825  Q 1016 2553 972 2059  L 3022 2063  z " transform="scale(0.015625)"/>
       <path id="DejaVuSans-20" transform="scale(0.015625)"/>
       <path id="DejaVuSans-28" d="M 1984 4856  Q 1566 4138 1362 3434  Q 1159 2731 1159 2009  Q 1159 1288 1364 580  Q 1569 -128 1984 -844  L 1484 -844  Q 1016 -109 783 600  Q 550 1309 550 2009  Q 550 2706 781 3412  Q 1013 4119 1484 4856  L 1984 4856  z " transform="scale(0.015625)"/>
       <path id="DejaVuSans-73" d="M 2834 3397  L 2834 2853  Q 2591 2978 2328 3040  Q 2066 3103 1784 3103  Q 1356 3103 1142 2972  Q 928 2841 928 2578  Q 928 2378 1081 2264  Q 1234 2150 1697 2047  L 1894 2003  Q 2506 1872 2764 1633  Q 3022 1394 3022 966  Q 3022 478 2636 193  Q 2250 -91 1575 -91  Q 1294 -91 989 -36  Q 684 19 347 128  L 347 722  Q 666 556 975 473  Q 1284 391 1588 391  Q 1994 391 2212 530  Q 2431 669 2431 922  Q 2431 1156 2273 1281  Q 2116 1406 1581 1522  L 1381 1569  Q 847 1681 609 1914  Q 372 2147 372 2553  Q 372 3047 722 3315  Q 1072 3584 1716 3584  Q 2034 3584 2315 3537  Q 2597 3491 2834 3397  z " transform="scale(0.015625)"/>
       <path id="DejaVuSans-29" d="M 513 4856  L 1013 4856  Q 1481 4119 1714 3412  Q 1947 2706 1947 2009  Q 1947 1309 1714 600  Q 1481 -109 1013 -844  L 513 -844  Q 928 -128 1133 580  Q 1338 1288 1338 2009  Q 1338 2731 1133 3434  Q 928 4138 513 4856  z " transform="scale(0.015625)"/>
      </defs>
      <use xlink:href="#DejaVuSans-54"/>
      <use xlink:href="#DejaVuSans-69" transform="translate(57.958984 0)"/>
      <use xlink:href="#DejaVuSans-6d" transform="translate(85.742188 0)"/>
      <use xlink:href="#DejaVuSans-65" transform="translate(183.154297 0)"/>
      <use xlink:href="#DejaVuSans-20" transform="translate(244.677734 0)"/>
      <use xlink:href="#DejaVuSans-28" transform="translate(276.464844 0)"/>
      <use xlink:href="#DejaVuSans-73" transform="translate(315.478516 0)"/>
      <use xlink:href="#DejaVuSans-29" transform="translate(367.578125 0)"/>
     </g>
    </g>
   </g>
   <g id="matplotlib.axis_2">
    <g id="ytick_1">
     <g id="line2d_8">
      <defs>
       <path id="m4f41d38a8f" d="M 0 0  L -3.5 0  " style="stroke: #000000; stroke-width: 0.8"/>
      </defs>
      <g>
       <use xlink:href="#m4f41d38a8f" x="90" y="375.999721" style="stroke: #000000; stroke-width: 0.8"/>
      </g>
     </g>
     <g id="text_9">
      <!-- 0 -->
      <g transform="translate(76.6375 379.798939) scale(0.1 -0.1)">
       <use xlink:href="#DejaVuSans-30"/>
      </g>
     </g>
    </g>
    <g id="ytick_2">
     <g id="line2d_9">
      <g>
       <use xlink:href="#m4f41d38a8f" x="90" y="338.415628" style="stroke: #000000; stroke-width: 0.8"/>
      </g>
     </g>
     <g id="text_10">
      <!-- 250 -->
      <g transform="translate(63.9125 342.214847) scale(0.1 -0.1)">
       <use xlink:href="#DejaVuSans-32"/>
       <use xlink:href="#DejaVuSans-35" transform="translate(63.623047 0)"/>
       <use xlink:href="#DejaVuSans-30" transform="translate(127.246094 0)"/>
      </g>
     </g>
    </g>
    <g id="ytick_3">
     <g id="line2d_10">
      <g>
       <use xlink:href="#m4f41d38a8f" x="90" y="300.831536" style="stroke: #000000; stroke-width: 0.8"/>
      </g>
     </g>
     <g id="text_11">
      <!-- 500 -->
      <g transform="translate(63.9125 304.630755) scale(0.1 -0.1)">
       <use xlink:href="#DejaVuSans-35"/>
       <use xlink:href="#DejaVuSans-30" transform="translate(63.623047 0)"/>
       <use xlink:href="#DejaVuSans-30" transform="translate(127.246094 0)"/>
      </g>
     </g>
    </g>
    <g id="ytick_4">
     <g id="line2d_11">
      <g>
       <use xlink:href="#m4f41d38a8f" x="90" y="263.247443" style="stroke: #000000; stroke-width: 0.8"/>
      </g>
     </g>
     <g id="text_12">
      <!-- 750 -->
      <g transform="translate(63.9125 267.046662) scale(0.1 -0.1)">
       <defs>
        <path id="DejaVuSans-37" d="M 525 4666  L 3525 4666  L 3525 4397  L 1831 0  L 1172 0  L 2766 4134  L 525 4134  L 525 4666  z " transform="scale(0.015625)"/>
       </defs>
       <use xlink:href="#DejaVuSans-37"/>
       <use xlink:href="#DejaVuSans-35" transform="translate(63.623047 0)"/>
       <use xlink:href="#DejaVuSans-30" transform="translate(127.246094 0)"/>
      </g>
     </g>
    </g>
    <g id="ytick_5">
     <g id="line2d_12">
      <g>
       <use xlink:href="#m4f41d38a8f" x="90" y="225.663351" style="stroke: #000000; stroke-width: 0.8"/>
      </g>
     </g>
     <g id="text_13">
      <!-- 1000 -->
      <g transform="translate(57.55 229.46257) scale(0.1 -0.1)">
       <use xlink:href="#DejaVuSans-31"/>
       <use xlink:href="#DejaVuSans-30" transform="translate(63.623047 0)"/>
       <use xlink:href="#DejaVuSans-30" transform="translate(127.246094 0)"/>
       <use xlink:href="#DejaVuSans-30" transform="translate(190.869141 0)"/>
      </g>
     </g>
    </g>
    <g id="ytick_6">
     <g id="line2d_13">
      <g>
       <use xlink:href="#m4f41d38a8f" x="90" y="188.079258" style="stroke: #000000; stroke-width: 0.8"/>
      </g>
     </g>
     <g id="text_14">
      <!-- 1250 -->
      <g transform="translate(57.55 191.878477) scale(0.1 -0.1)">
       <use xlink:href="#DejaVuSans-31"/>
       <use xlink:href="#DejaVuSans-32" transform="translate(63.623047 0)"/>
       <use xlink:href="#DejaVuSans-35" transform="translate(127.246094 0)"/>
       <use xlink:href="#DejaVuSans-30" transform="translate(190.869141 0)"/>
      </g>
     </g>
    </g>
    <g id="ytick_7">
     <g id="line2d_14">
      <g>
       <use xlink:href="#m4f41d38a8f" x="90" y="150.495166" style="stroke: #000000; stroke-width: 0.8"/>
      </g>
     </g>
     <g id="text_15">
      <!-- 1500 -->
      <g transform="translate(57.55 154.294385) scale(0.1 -0.1)">
       <use xlink:href="#DejaVuSans-31"/>
       <use xlink:href="#DejaVuSans-35" transform="translate(63.623047 0)"/>
       <use xlink:href="#DejaVuSans-30" transform="translate(127.246094 0)"/>
       <use xlink:href="#DejaVuSans-30" transform="translate(190.869141 0)"/>
      </g>
     </g>
    </g>
    <g id="ytick_8">
     <g id="line2d_15">
      <g>
       <use xlink:href="#m4f41d38a8f" x="90" y="112.911073" style="stroke: #000000; stroke-width: 0.8"/>
      </g>
     </g>
     <g id="text_16">
      <!-- 1750 -->
      <g transform="translate(57.55 116.710292) scale(0.1 -0.1)">
       <use xlink:href="#DejaVuSans-31"/>
       <use xlink:href="#DejaVuSans-37" transform="translate(63.623047 0)"/>
       <use xlink:href="#DejaVuSans-35" transform="translate(127.246094 0)"/>
       <use xlink:href="#DejaVuSans-30" transform="translate(190.869141 0)"/>
      </g>
     </g>
    </g>
    <g id="ytick_9">
     <g id="line2d_16">
      <g>
       <use xlink:href="#m4f41d38a8f" x="90" y="75.326981" style="stroke: #000000; stroke-width: 0.8"/>
      </g>
     </g>
     <g id="text_17">
      <!-- 2000 -->
      <g transform="translate(57.55 79.1262) scale(0.1 -0.1)">
       <use xlink:href="#DejaVuSans-32"/>
       <use xlink:href="#DejaVuSans-30" transform="translate(63.623047 0)"/>
       <use xlink:href="#DejaVuSans-30" transform="translate(127.246094 0)"/>
       <use xlink:href="#DejaVuSans-30" transform="translate(190.869141 0)"/>
      </g>
     </g>
    </g>
    <g id="text_18">
     <!-- RMSE -->
     <g transform="translate(50.2225 240.755) rotate(-90) scale(0.16 -0.16)">
      <defs>
       <path id="DejaVuSans-52" d="M 2841 2188  Q 3044 2119 3236 1894  Q 3428 1669 3622 1275  L 4263 0  L 3584 0  L 2988 1197  Q 2756 1666 2539 1819  Q 2322 1972 1947 1972  L 1259 1972  L 1259 0  L 628 0  L 628 4666  L 2053 4666  Q 2853 4666 3247 4331  Q 3641 3997 3641 3322  Q 3641 2881 3436 2590  Q 3231 2300 2841 2188  z M 1259 4147  L 1259 2491  L 2053 2491  Q 2509 2491 2742 2702  Q 2975 2913 2975 3322  Q 2975 3731 2742 3939  Q 2509 4147 2053 4147  L 1259 4147  z " transform="scale(0.015625)"/>
       <path id="DejaVuSans-4d" d="M 628 4666  L 1569 4666  L 2759 1491  L 3956 4666  L 4897 4666  L 4897 0  L 4281 0  L 4281 4097  L 3078 897  L 2444 897  L 1241 4097  L 1241 0  L 628 0  L 628 4666  z " transform="scale(0.015625)"/>
       <path id="DejaVuSans-53" d="M 3425 4513  L 3425 3897  Q 3066 4069 2747 4153  Q 2428 4238 2131 4238  Q 1616 4238 1336 4038  Q 1056 3838 1056 3469  Q 1056 3159 1242 3001  Q 1428 2844 1947 2747  L 2328 2669  Q 3034 2534 3370 2195  Q 3706 1856 3706 1288  Q 3706 609 3251 259  Q 2797 -91 1919 -91  Q 1588 -91 1214 -16  Q 841 59 441 206  L 441 856  Q 825 641 1194 531  Q 1563 422 1919 422  Q 2459 422 2753 634  Q 3047 847 3047 1241  Q 3047 1584 2836 1778  Q 2625 1972 2144 2069  L 1759 2144  Q 1053 2284 737 2584  Q 422 2884 422 3419  Q 422 4038 858 4394  Q 1294 4750 2059 4750  Q 2388 4750 2728 4690  Q 3069 4631 3425 4513  z " transform="scale(0.015625)"/>
       <path id="DejaVuSans-45" d="M 628 4666  L 3578 4666  L 3578 4134  L 1259 4134  L 1259 2753  L 3481 2753  L 3481 2222  L 1259 2222  L 1259 531  L 3634 531  L 3634 0  L 628 0  L 628 4666  z " transform="scale(0.015625)"/>
      </defs>
      <use xlink:href="#DejaVuSans-52"/>
      <use xlink:href="#DejaVuSans-4d" transform="translate(69.482422 0)"/>
      <use xlink:href="#DejaVuSans-53" transform="translate(155.761719 0)"/>
      <use xlink:href="#DejaVuSans-45" transform="translate(219.238281 0)"/>
     </g>
    </g>
   </g>
   <g id="line2d_17">
    <path d="M 90 333.738666  L 100.594937 333.579236  L 104.126582 333.863907  L 107.658228 334.022776  L 111.189873 334.046115  L 114.721519 333.953614  L 118.253165 333.988156  L 121.78481 333.903509  L 125.316456 333.948053  L 128.848101 334.536855  L 139.443038 334.634734  L 142.974684 334.710801  L 146.506329 334.935076  L 160.632911 334.958855  L 164.164557 334.810565  L 178.291139 335.035914  L 181.822785 334.76074  L 188.886076 335.004551  L 192.417722 334.601141  L 195.949367 334.545169  L 199.481013 334.887509  L 203.012658 334.817135  L 206.544304 334.910526  L 210.075949 335.161902  L 220.670886 335.380479  L 224.202532 335.319974  L 227.734177 335.423151  L 234.797468 335.071874  L 245.392405 335.237006  L 248.924051 335.008464  L 255.987342 335.368991  L 259.518987 335.321946  L 266.582278 335.538546  L 277.177215 335.440778  L 280.708861 335.673953  L 284.240506 335.521901  L 294.835443 335.448178  L 298.367089 335.324098  L 301.898734 335.533224  L 316.025316 335.550337  L 319.556962 335.6535  L 330.151899 335.439865  L 337.21519 335.662034  L 344.278481 335.290418  L 351.341772 335.461662  L 354.873418 335.339426  L 358.405063 335.532233  L 361.936709 335.556122  L 369 335.246544  L 383.126582 335.669306  L 386.658228 335.596624  L 390.189873 335.770308  L 393.721519 335.786049  L 397.253165 335.654808  L 404.316456 335.755232  L 411.379747 335.853033  L 429.037975 335.680739  L 432.56962 335.809824  L 436.101266 335.74335  L 439.632911 335.408332  L 443.164557 335.427133  L 446.696203 335.648243  L 453.759494 335.288482  L 457.291139 335.509321  L 460.822785 335.324754  L 471.417722 335.584127  L 482.012658 335.595913  L 485.544304 335.062335  L 489.075949 334.923024  L 492.607595 335.247774  L 496.139241 334.94861  L 503.202532 335.165522  L 538.518987 334.355968  L 552.64557 334.199264  L 556.177215 334.311415  L 563.240506 334.123742  L 566.772152 334.234481  L 570.303797 334.088471  L 577.367089 334.353908  L 584.43038 334.085461  L 591.493671 334.345517  L 595.025316 334.227447  L 598.556962 333.844339  L 605.620253 333.637572  L 612.683544 334.168869  L 619.746835 333.93768  L 626.810127 333.994253  L 633.873418 334.357615  L 637.405063 334.146833  L 640.936709 334.095586  L 644.468354 333.717929  L 648 333.495571  L 651.531646 333.552883  L 651.531646 333.552883  " clip-path="url(#p94c9d3f793)" style="fill: none; stroke: #000000; stroke-width: 1.5; stroke-linecap: square"/>
   </g>
   <g id="line2d_18">
    <path d="M 90 366.726895  L 93.531646 366.717  L 100.594937 366.518999  L 104.126582 366.82932  L 114.721519 367.063063  L 118.253165 366.761387  L 125.316456 366.842387  L 128.848101 367.185708  L 132.379747 367.680535  L 135.911392 367.435399  L 139.443038 367.39005  L 146.506329 367.855583  L 153.56962 367.862269  L 157.101266 367.650356  L 160.632911 367.880325  L 174.759494 367.716317  L 178.291139 367.609351  L 188.886076 367.981913  L 192.417722 367.748  L 195.949367 367.703681  L 199.481013 367.965125  L 206.544304 368.071563  L 210.075949 368.351646  L 213.607595 368.09104  L 217.139241 368.316657  L 220.670886 368.264284  L 224.202532 368.323817  L 227.734177 368.703162  L 231.265823 368.439767  L 252.455696 368.216111  L 255.987342 368.50714  L 259.518987 368.426841  L 270.113924 368.788973  L 273.64557 368.566304  L 277.177215 368.7859  L 287.772152 368.654935  L 291.303797 368.947456  L 294.835443 368.625659  L 298.367089 368.509895  L 301.898734 368.733658  L 305.43038 368.828038  L 308.962025 368.658693  L 312.493671 368.963702  L 316.025316 368.836274  L 319.556962 369.037594  L 330.151899 368.955234  L 333.683544 369.030322  L 337.21519 368.762756  L 344.278481 368.98881  L 347.810127 368.865398  L 351.341772 369.128829  L 354.873418 368.837906  L 358.405063 368.778039  L 361.936709 369.11142  L 365.468354 369.014552  L 369 368.713311  L 372.531646 368.655862  L 379.594937 369.122865  L 383.126582 369.233035  L 386.658228 368.970837  L 393.721519 369.21503  L 397.253165 368.968391  L 407.848101 369.156286  L 411.379747 369.349146  L 414.911392 369.241949  L 421.974684 369.36  L 432.56962 369.066059  L 436.101266 368.715584  L 439.632911 368.854743  L 443.164557 368.39236  L 446.696203 368.618744  L 450.227848 368.400305  L 453.759494 368.404175  L 457.291139 368.538204  L 460.822785 368.55129  L 467.886076 368.74603  L 471.417722 368.750778  L 474.949367 368.947376  L 478.481013 369.000162  L 485.544304 368.11892  L 492.607595 368.259428  L 496.139241 367.989631  L 503.202532 368.025805  L 506.734177 367.904882  L 510.265823 367.970186  L 513.797468 367.807369  L 517.329114 367.840977  L 524.392405 367.396929  L 527.924051 367.440353  L 531.455696 367.285724  L 534.987342 367.315373  L 538.518987 367.135063  L 542.050633 367.230044  L 545.582278 367.157466  L 549.113924 366.901929  L 559.708861 366.708373  L 563.240506 366.955599  L 584.43038 366.833867  L 587.962025 367.030689  L 591.493671 367.049573  L 595.025316 366.773753  L 598.556962 366.927873  L 605.620253 366.941325  L 609.151899 366.696154  L 612.683544 366.885312  L 616.21519 366.858845  L 619.746835 366.693459  L 623.278481 366.902757  L 630.341772 366.850151  L 633.873418 367.049457  L 637.405063 366.775175  L 644.468354 366.874426  L 648 366.799257  L 651.531646 366.535021  L 651.531646 366.535021  " clip-path="url(#p94c9d3f793)" style="fill: none; stroke-dasharray: 5.55,2.4; stroke-dashoffset: 0; stroke: #000000; stroke-width: 1.5"/>
   </g>
   <g id="line2d_19">
    <path d="M 90 67.193651  L 93.531646 66.96  L 97.063291 67.682917  L 100.594937 67.745653  L 104.126582 67.094359  L 107.658228 67.555304  L 111.189873 68.179947  L 114.721519 68.63251  L 118.253165 68.111688  L 121.78481 68.857818  L 125.316456 68.960929  L 135.911392 70.219678  L 139.443038 70.277814  L 142.974684 70.205086  L 146.506329 71.345443  L 150.037975 70.26666  L 153.56962 69.309549  L 157.101266 68.827634  L 164.164557 68.723493  L 167.696203 68.771793  L 171.227848 68.36146  L 174.759494 68.649129  L 178.291139 67.706264  L 181.822785 68.413823  L 185.35443 68.611209  L 188.886076 68.954418  L 192.417722 68.611764  L 195.949367 68.64277  L 199.481013 67.92145  L 203.012658 69.420716  L 206.544304 68.08942  L 210.075949 68.93456  L 213.607595 68.603015  L 217.139241 69.160148  L 220.670886 70.318403  L 224.202532 69.489359  L 227.734177 69.914708  L 234.797468 69.632725  L 241.860759 70.697011  L 245.392405 69.262753  L 248.924051 69.111841  L 252.455696 69.235052  L 259.518987 70.729982  L 263.050633 69.212419  L 266.582278 69.144679  L 270.113924 68.83989  L 273.64557 68.226809  L 277.177215 68.668234  L 280.708861 69.693577  L 284.240506 68.816166  L 287.772152 69.462439  L 291.303797 69.919134  L 294.835443 70.060379  L 298.367089 70.088099  L 301.898734 69.952891  L 305.43038 69.484151  L 312.493671 70.318348  L 316.025316 71.365937  L 319.556962 69.972521  L 323.088608 70.193442  L 326.620253 71.049356  L 330.151899 71.13964  L 333.683544 70.702501  L 337.21519 71.387703  L 344.278481 70.827349  L 347.810127 71.351825  L 354.873418 70.720355  L 358.405063 71.960473  L 361.936709 71.551858  L 365.468354 72.061715  L 369 69.978892  L 372.531646 69.582237  L 376.063291 70.910921  L 379.594937 71.070724  L 383.126582 71.020631  L 386.658228 70.676198  L 390.189873 70.89878  L 393.721519 70.601654  L 397.253165 71.423973  L 400.78481 71.279707  L 404.316456 71.66014  L 407.848101 71.278429  L 411.379747 70.132981  L 414.911392 69.4452  L 418.443038 71.1982  L 421.974684 70.71437  L 425.506329 70.02441  L 429.037975 71.826524  L 432.56962 72.713859  L 436.101266 71.995039  L 439.632911 71.131643  L 443.164557 72.353945  L 446.696203 72.57132  L 450.227848 71.980244  L 453.759494 73.016535  L 457.291139 72.915316  L 460.822785 73.336749  L 464.35443 74.784128  L 467.886076 72.753655  L 471.417722 72.815031  L 474.949367 71.967217  L 478.481013 72.742432  L 482.012658 72.867507  L 485.544304 72.771873  L 492.607595 71.396091  L 496.139241 71.831993  L 499.670886 71.968571  L 503.202532 72.565171  L 506.734177 73.284262  L 510.265823 72.728216  L 513.797468 73.483537  L 517.329114 72.359519  L 520.860759 72.797876  L 524.392405 73.556664  L 527.924051 72.45306  L 531.455696 73.097377  L 534.987342 74.452144  L 538.518987 74.052821  L 542.050633 73.852947  L 545.582278 74.046431  L 549.113924 72.768714  L 552.64557 74.42802  L 556.177215 74.479617  L 559.708861 74.130099  L 563.240506 74.955133  L 566.772152 73.760043  L 570.303797 73.617173  L 573.835443 73.635989  L 577.367089 74.334792  L 580.898734 74.829669  L 584.43038 73.745635  L 587.962025 73.941617  L 591.493671 73.34272  L 598.556962 73.224632  L 602.088608 72.899242  L 605.620253 72.929839  L 609.151899 73.118645  L 612.683544 73.106974  L 616.21519 72.45722  L 619.746835 72.320169  L 623.278481 72.015879  L 626.810127 72.457002  L 630.341772 73.322261  L 633.873418 73.98491  L 637.405063 72.565089  L 640.936709 74.37111  L 644.468354 73.050159  L 651.531646 73.105963  L 651.531646 73.105963  " clip-path="url(#p94c9d3f793)" style="fill: none; stroke-dasharray: 5.55,2.4; stroke-dashoffset: 0; stroke: #000000; stroke-width: 1.5"/>
   </g>
   <g id="patch_3">
    <path d="M 90 384.48  L 90 51.84  " style="fill: none; stroke: #000000; stroke-width: 0.8; stroke-linejoin: miter; stroke-linecap: square"/>
   </g>
   <g id="patch_4">
    <path d="M 648 384.48  L 648 51.84  " style="fill: none; stroke: #000000; stroke-width: 0.8; stroke-linejoin: miter; stroke-linecap: square"/>
   </g>
   <g id="patch_5">
    <path d="M 90 384.48  L 648 384.48  " style="fill: none; stroke: #000000; stroke-width: 0.8; stroke-linejoin: miter; stroke-linecap: square"/>
   </g>
   <g id="patch_6">
    <path d="M 90 51.84  L 648 51.84  " style="fill: none; stroke: #000000; stroke-width: 0.8; stroke-linejoin: miter; stroke-linecap: square"/>
   </g>
   <g id="text_19">
    <!-- Root mean squared error of T2* and S0 fit across voxels -->
    <g transform="translate(89.2125 45.84) scale(0.2 -0.2)">
     <defs>
      <path id="DejaVuSans-6f" d="M 1959 3097  Q 1497 3097 1228 2736  Q 959 2375 959 1747  Q 959 1119 1226 758  Q 1494 397 1959 397  Q 2419 397 2687 759  Q 2956 1122 2956 1747  Q 2956 2369 2687 2733  Q 2419 3097 1959 3097  z M 1959 3584  Q 2709 3584 3137 3096  Q 3566 2609 3566 1747  Q 3566 888 3137 398  Q 2709 -91 1959 -91  Q 1206 -91 779 398  Q 353 888 353 1747  Q 353 2609 779 3096  Q 1206 3584 1959 3584  z " transform="scale(0.015625)"/>
      <path id="DejaVuSans-74" d="M 1172 4494  L 1172 3500  L 2356 3500  L 2356 3053  L 1172 3053  L 1172 1153  Q 1172 725 1289 603  Q 1406 481 1766 481  L 2356 481  L 2356 0  L 1766 0  Q 1100 0 847 248  Q 594 497 594 1153  L 594 3053  L 172 3053  L 172 3500  L 594 3500  L 594 4494  L 1172 4494  z " transform="scale(0.015625)"/>
      <path id="DejaVuSans-61" d="M 2194 1759  Q 1497 1759 1228 1600  Q 959 1441 959 1056  Q 959 750 1161 570  Q 1363 391 1709 391  Q 2188 391 2477 730  Q 2766 1069 2766 1631  L 2766 1759  L 2194 1759  z M 3341 1997  L 3341 0  L 2766 0  L 2766 531  Q 2569 213 2275 61  Q 1981 -91 1556 -91  Q 1019 -91 701 211  Q 384 513 384 1019  Q 384 1609 779 1909  Q 1175 2209 1959 2209  L 2766 2209  L 2766 2266  Q 2766 2663 2505 2880  Q 2244 3097 1772 3097  Q 1472 3097 1187 3025  Q 903 2953 641 2809  L 641 3341  Q 956 3463 1253 3523  Q 1550 3584 1831 3584  Q 2591 3584 2966 3190  Q 3341 2797 3341 1997  z " transform="scale(0.015625)"/>
      <path id="DejaVuSans-6e" d="M 3513 2113  L 3513 0  L 2938 0  L 2938 2094  Q 2938 2591 2744 2837  Q 2550 3084 2163 3084  Q 1697 3084 1428 2787  Q 1159 2491 1159 1978  L 1159 0  L 581 0  L 581 3500  L 1159 3500  L 1159 2956  Q 1366 3272 1645 3428  Q 1925 3584 2291 3584  Q 2894 3584 3203 3211  Q 3513 2838 3513 2113  z " transform="scale(0.015625)"/>
      <path id="DejaVuSans-71" d="M 947 1747  Q 947 1113 1208 752  Q 1469 391 1925 391  Q 2381 391 2643 752  Q 2906 1113 2906 1747  Q 2906 2381 2643 2742  Q 2381 3103 1925 3103  Q 1469 3103 1208 2742  Q 947 2381 947 1747  z M 2906 525  Q 2725 213 2448 61  Q 2172 -91 1784 -91  Q 1150 -91 751 415  Q 353 922 353 1747  Q 353 2572 751 3078  Q 1150 3584 1784 3584  Q 2172 3584 2448 3432  Q 2725 3281 2906 2969  L 2906 3500  L 3481 3500  L 3481 -1331  L 2906 -1331  L 2906 525  z " transform="scale(0.015625)"/>
      <path id="DejaVuSans-75" d="M 544 1381  L 544 3500  L 1119 3500  L 1119 1403  Q 1119 906 1312 657  Q 1506 409 1894 409  Q 2359 409 2629 706  Q 2900 1003 2900 1516  L 2900 3500  L 3475 3500  L 3475 0  L 2900 0  L 2900 538  Q 2691 219 2414 64  Q 2138 -91 1772 -91  Q 1169 -91 856 284  Q 544 659 544 1381  z M 1991 3584  L 1991 3584  z " transform="scale(0.015625)"/>
      <path id="DejaVuSans-72" d="M 2631 2963  Q 2534 3019 2420 3045  Q 2306 3072 2169 3072  Q 1681 3072 1420 2755  Q 1159 2438 1159 1844  L 1159 0  L 581 0  L 581 3500  L 1159 3500  L 1159 2956  Q 1341 3275 1631 3429  Q 1922 3584 2338 3584  Q 2397 3584 2469 3576  Q 2541 3569 2628 3553  L 2631 2963  z " transform="scale(0.015625)"/>
      <path id="DejaVuSans-64" d="M 2906 2969  L 2906 4863  L 3481 4863  L 3481 0  L 2906 0  L 2906 525  Q 2725 213 2448 61  Q 2172 -91 1784 -91  Q 1150 -91 751 415  Q 353 922 353 1747  Q 353 2572 751 3078  Q 1150 3584 1784 3584  Q 2172 3584 2448 3432  Q 2725 3281 2906 2969  z M 947 1747  Q 947 1113 1208 752  Q 1469 391 1925 391  Q 2381 391 2643 752  Q 2906 1113 2906 1747  Q 2906 2381 2643 2742  Q 2381 3103 1925 3103  Q 1469 3103 1208 2742  Q 947 2381 947 1747  z " transform="scale(0.015625)"/>
      <path id="DejaVuSans-66" d="M 2375 4863  L 2375 4384  L 1825 4384  Q 1516 4384 1395 4259  Q 1275 4134 1275 3809  L 1275 3500  L 2222 3500  L 2222 3053  L 1275 3053  L 1275 0  L 697 0  L 697 3053  L 147 3053  L 147 3500  L 697 3500  L 697 3744  Q 697 4328 969 4595  Q 1241 4863 1831 4863  L 2375 4863  z " transform="scale(0.015625)"/>
      <path id="DejaVuSans-2a" d="M 3009 3897  L 1888 3291  L 3009 2681  L 2828 2375  L 1778 3009  L 1778 1831  L 1422 1831  L 1422 3009  L 372 2375  L 191 2681  L 1313 3291  L 191 3897  L 372 4206  L 1422 3572  L 1422 4750  L 1778 4750  L 1778 3572  L 2828 4206  L 3009 3897  z " transform="scale(0.015625)"/>
      <path id="DejaVuSans-63" d="M 3122 3366  L 3122 2828  Q 2878 2963 2633 3030  Q 2388 3097 2138 3097  Q 1578 3097 1268 2742  Q 959 2388 959 1747  Q 959 1106 1268 751  Q 1578 397 2138 397  Q 2388 397 2633 464  Q 2878 531 3122 666  L 3122 134  Q 2881 22 2623 -34  Q 2366 -91 2075 -91  Q 1284 -91 818 406  Q 353 903 353 1747  Q 353 2603 823 3093  Q 1294 3584 2113 3584  Q 2378 3584 2631 3529  Q 2884 3475 3122 3366  z " transform="scale(0.015625)"/>
      <path id="DejaVuSans-76" d="M 191 3500  L 800 3500  L 1894 563  L 2988 3500  L 3597 3500  L 2284 0  L 1503 0  L 191 3500  z " transform="scale(0.015625)"/>
      <path id="DejaVuSans-78" d="M 3513 3500  L 2247 1797  L 3578 0  L 2900 0  L 1881 1375  L 863 0  L 184 0  L 1544 1831  L 300 3500  L 978 3500  L 1906 2253  L 2834 3500  L 3513 3500  z " transform="scale(0.015625)"/>
      <path id="DejaVuSans-6c" d="M 603 4863  L 1178 4863  L 1178 0  L 603 0  L 603 4863  z " transform="scale(0.015625)"/>
     </defs>
     <use xlink:href="#DejaVuSans-52"/>
     <use xlink:href="#DejaVuSans-6f" transform="translate(64.982422 0)"/>
     <use xlink:href="#DejaVuSans-6f" transform="translate(126.164062 0)"/>
     <use xlink:href="#DejaVuSans-74" transform="translate(187.345703 0)"/>
     <use xlink:href="#DejaVuSans-20" transform="translate(226.554688 0)"/>
     <use xlink:href="#DejaVuSans-6d" transform="translate(258.341797 0)"/>
     <use xlink:href="#DejaVuSans-65" transform="translate(355.753906 0)"/>
     <use xlink:href="#DejaVuSans-61" transform="translate(417.277344 0)"/>
     <use xlink:href="#DejaVuSans-6e" transform="translate(478.556641 0)"/>
     <use xlink:href="#DejaVuSans-20" transform="translate(541.935547 0)"/>
     <use xlink:href="#DejaVuSans-73" transform="translate(573.722656 0)"/>
     <use xlink:href="#DejaVuSans-71" transform="translate(625.822266 0)"/>
     <use xlink:href="#DejaVuSans-75" transform="translate(689.298828 0)"/>
     <use xlink:href="#DejaVuSans-61" transform="translate(752.677734 0)"/>
     <use xlink:href="#DejaVuSans-72" transform="translate(813.957031 0)"/>
     <use xlink:href="#DejaVuSans-65" transform="translate(852.820312 0)"/>
     <use xlink:href="#DejaVuSans-64" transform="translate(914.34375 0)"/>
     <use xlink:href="#DejaVuSans-20" transform="translate(977.820312 0)"/>
     <use xlink:href="#DejaVuSans-65" transform="translate(1009.607422 0)"/>
     <use xlink:href="#DejaVuSans-72" transform="translate(1071.130859 0)"/>
     <use xlink:href="#DejaVuSans-72" transform="translate(1110.494141 0)"/>
     <use xlink:href="#DejaVuSans-6f" transform="translate(1149.357422 0)"/>
     <use xlink:href="#DejaVuSans-72" transform="translate(1210.539062 0)"/>
     <use xlink:href="#DejaVuSans-20" transform="translate(1251.652344 0)"/>
     <use xlink:href="#DejaVuSans-6f" transform="translate(1283.439453 0)"/>
     <use xlink:href="#DejaVuSans-66" transform="translate(1344.621094 0)"/>
     <use xlink:href="#DejaVuSans-20" transform="translate(1379.826172 0)"/>
     <use xlink:href="#DejaVuSans-54" transform="translate(1411.613281 0)"/>
     <use xlink:href="#DejaVuSans-32" transform="translate(1472.697266 0)"/>
     <use xlink:href="#DejaVuSans-2a" transform="translate(1536.320312 0)"/>
     <use xlink:href="#DejaVuSans-20" transform="translate(1586.320312 0)"/>
     <use xlink:href="#DejaVuSans-61" transform="translate(1618.107422 0)"/>
     <use xlink:href="#DejaVuSans-6e" transform="translate(1679.386719 0)"/>
     <use xlink:href="#DejaVuSans-64" transform="translate(1742.765625 0)"/>
     <use xlink:href="#DejaVuSans-20" transform="translate(1806.242188 0)"/>
     <use xlink:href="#DejaVuSans-53" transform="translate(1838.029297 0)"/>
     <use xlink:href="#DejaVuSans-30" transform="translate(1901.505859 0)"/>
     <use xlink:href="#DejaVuSans-20" transform="translate(1965.128906 0)"/>
     <use xlink:href="#DejaVuSans-66" transform="translate(1996.916016 0)"/>
     <use xlink:href="#DejaVuSans-69" transform="translate(2032.121094 0)"/>
     <use xlink:href="#DejaVuSans-74" transform="translate(2059.904297 0)"/>
     <use xlink:href="#DejaVuSans-20" transform="translate(2099.113281 0)"/>
     <use xlink:href="#DejaVuSans-61" transform="translate(2130.900391 0)"/>
     <use xlink:href="#DejaVuSans-63" transform="translate(2192.179688 0)"/>
     <use xlink:href="#DejaVuSans-72" transform="translate(2247.160156 0)"/>
     <use xlink:href="#DejaVuSans-6f" transform="translate(2286.023438 0)"/>
     <use xlink:href="#DejaVuSans-73" transform="translate(2347.205078 0)"/>
     <use xlink:href="#DejaVuSans-73" transform="translate(2399.304688 0)"/>
     <use xlink:href="#DejaVuSans-20" transform="translate(2451.404297 0)"/>
     <use xlink:href="#DejaVuSans-76" transform="translate(2483.191406 0)"/>
     <use xlink:href="#DejaVuSans-6f" transform="translate(2542.371094 0)"/>
     <use xlink:href="#DejaVuSans-78" transform="translate(2600.427734 0)"/>
     <use xlink:href="#DejaVuSans-65" transform="translate(2656.482422 0)"/>
     <use xlink:href="#DejaVuSans-6c" transform="translate(2718.005859 0)"/>
     <use xlink:href="#DejaVuSans-73" transform="translate(2745.789062 0)"/>
    </g>
   </g>
   <g id="legend_1">
    <g id="patch_7">
     <path d="M 483.404688 241.677188  L 641 241.677188  Q 643 241.677188 643 239.677188  L 643 196.642812  Q 643 194.642812 641 194.642812  L 483.404688 194.642812  Q 481.404688 194.642812 481.404688 196.642812  L 481.404688 239.677188  Q 481.404688 241.677188 483.404688 241.677188  z " style="fill: #ffffff; opacity: 0.8; stroke: #cccccc; stroke-linejoin: miter"/>
    </g>
    <g id="line2d_20">
     <path d="M 485.404688 202.74125  L 495.404688 202.74125  L 505.404688 202.74125  " style="fill: none; stroke: #000000; stroke-width: 1.5; stroke-linecap: square"/>
    </g>
    <g id="text_20">
     <!-- Median -->
     <g transform="translate(513.404688 206.24125) scale(0.1 -0.1)">
      <use xlink:href="#DejaVuSans-4d"/>
      <use xlink:href="#DejaVuSans-65" transform="translate(86.279297 0)"/>
      <use xlink:href="#DejaVuSans-64" transform="translate(147.802734 0)"/>
      <use xlink:href="#DejaVuSans-69" transform="translate(211.279297 0)"/>
      <use xlink:href="#DejaVuSans-61" transform="translate(239.0625 0)"/>
      <use xlink:href="#DejaVuSans-6e" transform="translate(300.341797 0)"/>
     </g>
    </g>
    <g id="patch_8">
     <path d="M 485.404688 220.919375  L 505.404688 220.919375  L 505.404688 213.919375  L 485.404688 213.919375  z " style="fill: #0000ff; fill-opacity: 0.2; stroke: #0000ff; stroke-opacity: 0.2; stroke-linejoin: miter"/>
    </g>
    <g id="text_21">
     <!-- 25th-75th percentiles -->
     <g transform="translate(513.404688 220.919375) scale(0.1 -0.1)">
      <defs>
       <path id="DejaVuSans-68" d="M 3513 2113  L 3513 0  L 2938 0  L 2938 2094  Q 2938 2591 2744 2837  Q 2550 3084 2163 3084  Q 1697 3084 1428 2787  Q 1159 2491 1159 1978  L 1159 0  L 581 0  L 581 4863  L 1159 4863  L 1159 2956  Q 1366 3272 1645 3428  Q 1925 3584 2291 3584  Q 2894 3584 3203 3211  Q 3513 2838 3513 2113  z " transform="scale(0.015625)"/>
       <path id="DejaVuSans-2d" d="M 313 2009  L 1997 2009  L 1997 1497  L 313 1497  L 313 2009  z " transform="scale(0.015625)"/>
       <path id="DejaVuSans-70" d="M 1159 525  L 1159 -1331  L 581 -1331  L 581 3500  L 1159 3500  L 1159 2969  Q 1341 3281 1617 3432  Q 1894 3584 2278 3584  Q 2916 3584 3314 3078  Q 3713 2572 3713 1747  Q 3713 922 3314 415  Q 2916 -91 2278 -91  Q 1894 -91 1617 61  Q 1341 213 1159 525  z M 3116 1747  Q 3116 2381 2855 2742  Q 2594 3103 2138 3103  Q 1681 3103 1420 2742  Q 1159 2381 1159 1747  Q 1159 1113 1420 752  Q 1681 391 2138 391  Q 2594 391 2855 752  Q 3116 1113 3116 1747  z " transform="scale(0.015625)"/>
      </defs>
      <use xlink:href="#DejaVuSans-32"/>
      <use xlink:href="#DejaVuSans-35" transform="translate(63.623047 0)"/>
      <use xlink:href="#DejaVuSans-74" transform="translate(127.246094 0)"/>
      <use xlink:href="#DejaVuSans-68" transform="translate(166.455078 0)"/>
      <use xlink:href="#DejaVuSans-2d" transform="translate(229.833984 0)"/>
      <use xlink:href="#DejaVuSans-37" transform="translate(265.917969 0)"/>
      <use xlink:href="#DejaVuSans-35" transform="translate(329.541016 0)"/>
      <use xlink:href="#DejaVuSans-74" transform="translate(393.164062 0)"/>
      <use xlink:href="#DejaVuSans-68" transform="translate(432.373047 0)"/>
      <use xlink:href="#DejaVuSans-20" transform="translate(495.751953 0)"/>
      <use xlink:href="#DejaVuSans-70" transform="translate(527.539062 0)"/>
      <use xlink:href="#DejaVuSans-65" transform="translate(591.015625 0)"/>
      <use xlink:href="#DejaVuSans-72" transform="translate(652.539062 0)"/>
      <use xlink:href="#DejaVuSans-63" transform="translate(691.402344 0)"/>
      <use xlink:href="#DejaVuSans-65" transform="translate(746.382812 0)"/>
      <use xlink:href="#DejaVuSans-6e" transform="translate(807.90625 0)"/>
      <use xlink:href="#DejaVuSans-74" transform="translate(871.285156 0)"/>
      <use xlink:href="#DejaVuSans-69" transform="translate(910.494141 0)"/>
      <use xlink:href="#DejaVuSans-6c" transform="translate(938.277344 0)"/>
      <use xlink:href="#DejaVuSans-65" transform="translate(966.060547 0)"/>
      <use xlink:href="#DejaVuSans-73" transform="translate(1027.583984 0)"/>
     </g>
    </g>
    <g id="line2d_21">
     <path d="M 485.404688 232.0975  L 495.404688 232.0975  L 505.404688 232.0975  " style="fill: none; stroke-dasharray: 5.55,2.4; stroke-dashoffset: 0; stroke: #000000; stroke-width: 1.5"/>
    </g>
    <g id="text_22">
     <!-- 2nd and 98th percentiles -->
     <g transform="translate(513.404688 235.5975) scale(0.1 -0.1)">
      <defs>
       <path id="DejaVuSans-39" d="M 703 97  L 703 672  Q 941 559 1184 500  Q 1428 441 1663 441  Q 2288 441 2617 861  Q 2947 1281 2994 2138  Q 2813 1869 2534 1725  Q 2256 1581 1919 1581  Q 1219 1581 811 2004  Q 403 2428 403 3163  Q 403 3881 828 4315  Q 1253 4750 1959 4750  Q 2769 4750 3195 4129  Q 3622 3509 3622 2328  Q 3622 1225 3098 567  Q 2575 -91 1691 -91  Q 1453 -91 1209 -44  Q 966 3 703 97  z M 1959 2075  Q 2384 2075 2632 2365  Q 2881 2656 2881 3163  Q 2881 3666 2632 3958  Q 2384 4250 1959 4250  Q 1534 4250 1286 3958  Q 1038 3666 1038 3163  Q 1038 2656 1286 2365  Q 1534 2075 1959 2075  z " transform="scale(0.015625)"/>
       <path id="DejaVuSans-38" d="M 2034 2216  Q 1584 2216 1326 1975  Q 1069 1734 1069 1313  Q 1069 891 1326 650  Q 1584 409 2034 409  Q 2484 409 2743 651  Q 3003 894 3003 1313  Q 3003 1734 2745 1975  Q 2488 2216 2034 2216  z M 1403 2484  Q 997 2584 770 2862  Q 544 3141 544 3541  Q 544 4100 942 4425  Q 1341 4750 2034 4750  Q 2731 4750 3128 4425  Q 3525 4100 3525 3541  Q 3525 3141 3298 2862  Q 3072 2584 2669 2484  Q 3125 2378 3379 2068  Q 3634 1759 3634 1313  Q 3634 634 3220 271  Q 2806 -91 2034 -91  Q 1263 -91 848 271  Q 434 634 434 1313  Q 434 1759 690 2068  Q 947 2378 1403 2484  z M 1172 3481  Q 1172 3119 1398 2916  Q 1625 2713 2034 2713  Q 2441 2713 2670 2916  Q 2900 3119 2900 3481  Q 2900 3844 2670 4047  Q 2441 4250 2034 4250  Q 1625 4250 1398 4047  Q 1172 3844 1172 3481  z " transform="scale(0.015625)"/>
      </defs>
      <use xlink:href="#DejaVuSans-32"/>
      <use xlink:href="#DejaVuSans-6e" transform="translate(63.623047 0)"/>
      <use xlink:href="#DejaVuSans-64" transform="translate(127.001953 0)"/>
      <use xlink:href="#DejaVuSans-20" transform="translate(190.478516 0)"/>
      <use xlink:href="#DejaVuSans-61" transform="translate(222.265625 0)"/>
      <use xlink:href="#DejaVuSans-6e" transform="translate(283.544922 0)"/>
      <use xlink:href="#DejaVuSans-64" transform="translate(346.923828 0)"/>
      <use xlink:href="#DejaVuSans-20" transform="translate(410.400391 0)"/>
      <use xlink:href="#DejaVuSans-39" transform="translate(442.1875 0)"/>
      <use xlink:href="#DejaVuSans-38" transform="translate(505.810547 0)"/>
      <use xlink:href="#DejaVuSans-74" transform="translate(569.433594 0)"/>
      <use xlink:href="#DejaVuSans-68" transform="translate(608.642578 0)"/>
      <use xlink:href="#DejaVuSans-20" transform="translate(672.021484 0)"/>
      <use xlink:href="#DejaVuSans-70" transform="translate(703.808594 0)"/>
      <use xlink:href="#DejaVuSans-65" transform="translate(767.285156 0)"/>
      <use xlink:href="#DejaVuSans-72" transform="translate(828.808594 0)"/>
      <use xlink:href="#DejaVuSans-63" transform="translate(867.671875 0)"/>
      <use xlink:href="#DejaVuSans-65" transform="translate(922.652344 0)"/>
      <use xlink:href="#DejaVuSans-6e" transform="translate(984.175781 0)"/>
      <use xlink:href="#DejaVuSans-74" transform="translate(1047.554688 0)"/>
      <use xlink:href="#DejaVuSans-69" transform="translate(1086.763672 0)"/>
      <use xlink:href="#DejaVuSans-6c" transform="translate(1114.546875 0)"/>
      <use xlink:href="#DejaVuSans-65" transform="translate(1142.330078 0)"/>
      <use xlink:href="#DejaVuSans-73" transform="translate(1203.853516 0)"/>
     </g>
    </g>
   </g>
  </g>
 </g>
 <defs>
  <clipPath id="p94c9d3f793">
   <rect x="90" y="51.84" width="558" height="332.64"/>
  </clipPath>
 </defs>
</svg>